<?xml version="1.0" standalone="no"?>
<!DOCTYPE svg PUBLIC "-//W3C//DTD SVG 1.1//EN" "http://www.w3.org/Graphics/SVG/1.1/DTD/svg11.dtd" >
<svg xmlns="http://www.w3.org/2000/svg">
<metadata>
<json>
<![CDATA[
{
	"fontFamily": "WFIconFont",
	"majorVersion": 3,
	"minorVersion": 6,
	"fontURL": "http://www.webfactory-i4.de/",
	"description": "WEBfactory icon font\nFont generated by IcoMoon.",
	"version": "Version 3.6",
	"fontId": "WFIconFont",
	"psName": "WFIconFont",
	"subFamily": "Regular",
	"fullName": "WFIconFont"
}
]]>
</json>
</metadata>
<defs>
<font id="WFIconFont" horiz-adv-x="1024">
<font-face units-per-em="1024" ascent="860.16" descent="-163.84" />
<missing-glyph horiz-adv-x="1024" />
<glyph unicode="&#x20;" horiz-adv-x="512" d="" />
<glyph unicode="&#xe600;" glyph-name="add" data-tags="add" d="M438.857 864h-73.143v-365.714h-365.714v-292.571h365.714v-365.714h292.571v365.714h365.714v292.571h-365.714v365.714z" />
<glyph unicode="&#xe601;" glyph-name="add-round" data-tags="add-round" d="M512 864c-282.77 0-512-229.23-512-512s229.23-512 512-512c282.77 0 512 229.23 512 512s-229.23 512-512 512zM438.857 644.571h146.286v-219.429h219.429v-146.286h-217.161l-2.267-219.429h-146.286l4.608 219.429h-224.037v146.286h219.429v219.429z" />
<glyph unicode="&#xe602;" glyph-name="add-round-o" data-tags="add-round-o" d="M512 864c-282.77 0-512-229.23-512-512s229.23-512 512-512c282.77 0 512 229.23 512 512s-229.23 512-512 512zM512 736c212.041 0 384-171.959 384-384s-171.959-384-384-384c-212.041 0-384 171.959-384 384s171.959 384 384 384zM438.857 571.429v-146.286h-146.286v-146.286h146.286v-146.286h146.286v146.286h146.286v146.286h-146.286v146.286h-146.286z" />
<glyph unicode="&#xe603;" glyph-name="advanced-filter" data-tags="advanced-filter" d="M292.571-86.857h73.143v-73.143h-73.143zM146.286-86.857h73.143v-73.143h-73.143zM0-86.857h73.143v-73.143h-73.143zM438.857 40.119l123.904-126.976h-123.904zM775.022 374.894l127.122-125.733-273.408-273.262-127.122 128.219zM901.266 498.286c49.518-16.165 108.471-73.143 122.661-121.49l-58.002-62.903-127.122 125.806zM-0.073 864h804.571l-292.571-365.714v-146.286l-219.429-219.429v355.035z" />
<glyph unicode="&#xe604;" glyph-name="alarm" data-tags="alarm" d="M475.429 790.857c-21.431 0-43.081-9.801-59.465-27.429l-390.875-722.286c-32.695-35.255-32.695-92.745 0-128h900.608c32.695 35.255 32.695 92.745 0 128l-390.875 722.286c-16.311 17.627-38.034 27.429-59.465 27.429zM475.355 534.857c25.893 0 36.571-8.631 36.571-36.571v-219.429c0-28.014-10.679-36.571-36.571-36.571-25.966 0-36.571 8.558-36.571 36.571v219.429c0 27.941 10.606 36.571 36.571 36.571zM475.355 169.143c36.571 0 73.143-36.571 73.143-73.143s-36.571-73.143-73.143-73.143c-36.571 0-73.143 36.571-73.143 73.143s36.571 73.143 73.143 73.143z" />
<glyph unicode="&#xe605;" glyph-name="alarm-clock" data-tags="alarm-clock" d="M512 864c-43.154 0-82.798-9.435-111.982-25.161-29.257-15.653-48.128-37.595-50.322-61.733v-4.608l4.608 2.267c48.859 10.898 101.961 16.018 157.696 16.018s108.837-5.12 157.696-16.018l4.608-2.267v4.608c-2.194 24.064-21.065 46.007-50.322 61.733s-68.827 25.161-111.982 25.161zM512 717.714c-50.469 0-97.938-11.191-141.751-29.696-43.739-18.505-83.456-44.617-116.59-77.751-33.061-33.061-59.173-72.85-77.751-116.59-18.505-43.739-29.696-91.209-29.696-141.751 0-50.469 11.191-97.938 29.696-141.751 18.505-43.739 44.617-83.456 77.751-116.59 33.061-33.061 72.85-59.173 116.59-77.751 43.739-18.505 91.209-29.696 141.751-29.696 50.469 0 97.938 11.191 141.751 29.696 43.739 18.505 83.456 44.617 116.59 77.751 33.061 33.061 59.173 72.85 77.751 116.59 18.505 43.739 29.696 91.209 29.696 141.751 0 50.469-11.191 97.938-29.696 141.751-18.505 43.739-44.617 83.456-77.751 116.59-33.061 33.061-72.85 59.173-116.59 77.751-43.739 18.505-91.209 29.696-141.751 29.696zM475.429 608h73.143v-194.267c21.358-12.727 36.571-35.035 36.571-61.733 0-5.925-3.218-10.459-4.608-16.018l150.894-166.839-50.322-50.322-153.161 164.571c-5.559-1.317-10.094-4.608-16.018-4.608-20.187 0-39.351 7.314-52.59 20.553s-20.553 32.402-20.553 52.59c0 26.624 15.214 48.933 36.571 61.733v194.267zM109.641 59.355c-30.281 0-57.856-12.142-77.751-32.037-19.822-19.822-32.037-47.397-32.037-77.751 0-30.281 12.142-57.856 32.037-77.751 19.822-19.822 47.397-32.037 77.751-32.037 30.281 0 57.856 12.142 77.751 32.037 19.822 19.822 32.037 47.397 32.037 77.751 0 30.281-12.142 57.856-32.037 77.751-19.822 19.822-47.397 32.037-77.751 32.037zM914.213 59.355c-30.281 0-57.856-12.142-77.751-32.037-19.822-19.822-32.037-47.397-32.037-77.751 0-30.281 12.142-57.856 32.037-77.751 19.822-19.822 47.397-32.037 77.751-32.037 30.281 0 57.856 12.142 77.751 32.037 19.822 19.822 32.037 47.397 32.037 77.751 0 30.281-12.142 57.856-32.037 77.751-19.822 19.822-47.397 32.037-77.751 32.037z" />
<glyph unicode="&#xe606;" glyph-name="alarm-reload" data-tags="alarm-reload" d="M507.465 864c-22.674 0-45.495-3.438-68.608-6.875-281.454-41.911-474.185-301.275-431.982-580.608s303.689-473.893 585.143-431.982c169.472 25.234 305.883 131.877 379.465 272.018l-66.267 32.037c-63.195-119.662-179.639-209.262-324.608-230.839-241.225-35.913-464.384 130.926-500.59 370.322s129.024 462.409 370.322 498.322c155.136 23.113 301.934-37.010 397.751-146.286l-121.125-75.41 297.179-137.143v324.608l-114.322-73.143c-97.499 115.785-243.493 187.538-402.286 185.125zM509.806 608.146c-110.226 0-164.571-53.394-164.571-182.857 0-37.010 0-74.971-18.286-111.982-36.718-37.010-73.143-74.971-73.143-111.982h512c0 37.010-36.425 74.971-73.143 111.982-18.359 37.010-18.286 74.971-18.286 111.982 0 129.463-54.345 182.857-164.571 182.857zM436.663 164.901c18.359-92.526 127.927-92.526 146.286 0h-146.286z" />
<glyph unicode="&#xe607;" glyph-name="alert" data-tags="alert" d="M512 864c-282.77 0-512-229.23-512-512s229.23-512 512-512c282.77 0 512 229.23 512 512s-229.23 512-512 512zM512 717.714c32.622 0 73.143-40.521 73.143-73.143v-365.714c0-32.622-40.521-73.143-73.143-73.143s-73.143 40.521-73.143 73.143v365.714c0 32.622 40.521 73.143 73.143 73.143zM512 132.571c40.375 0 73.143-32.768 73.143-73.143s-32.768-73.143-73.143-73.143c-40.375 0-73.143 32.768-73.143 73.143s32.768 73.143 73.143 73.143z" />
<glyph unicode="&#xe608;" glyph-name="alert-o" data-tags="alert-o" d="M512 864c-282.77 0-512-229.23-512-512s229.23-512 512-512c282.77 0 512 229.23 512 512s-229.23 512-512 512zM512 736c212.041 0 384-171.959 384-384s-171.959-384-384-384c-212.041 0-384 171.959-384 384s171.959 384 384 384zM512 644.571c-40.521 0-73.143-32.622-73.143-73.143v-219.429c0-40.521 32.622-73.143 73.143-73.143s73.143 32.622 73.143 73.143v219.429c0 40.521-32.622 73.143-73.143 73.143zM512 205.714c-40.375 0-73.143-32.768-73.143-73.143s32.768-73.143 73.143-73.143c40.375 0 73.143 32.768 73.143 73.143s-32.768 73.143-73.143 73.143z" />
<glyph unicode="&#xe609;" glyph-name="analysis" data-tags="analysis" d="M146.286 132.571v-292.571h-146.286v219.429zM292.571 242.286l73.143-73.143v-329.143l-145.993-1.755-0.293 330.898zM585.143 242.286v-402.286h-146.286v256zM804.571 461.714v-621.714h-146.286v475.429zM1024 864l-109.714-402.286-109.714 109.714-365.714-365.714-146.286 146.286-292.571-219.429v146.286l292.571 219.429 146.286-146.286 292.571 292.571-109.714 109.714z" />
<glyph unicode="&#xe60a;" glyph-name="archive" data-tags="archive" d="M292.571 864l-219.429-146.286v-877.714h877.714v877.714l-219.429 146.286h-438.857zM146.286 717.714h731.429v-804.571h-731.429v804.571zM219.429 644.571v-292.571h585.143v292.571h-585.143zM292.571 571.429h73.143v-73.143h292.571v73.143h73.143v-146.286h-438.857v146.286zM219.429 278.857v-292.571h585.143v292.571h-585.143zM292.571 205.714h73.143v-73.143h292.571v73.143h73.143v-146.286h-438.857v146.286z" />
<glyph unicode="&#xe60b;" glyph-name="arrow" data-tags="arrow" d="M585.143 717.714v-219.429h-585.143v-292.571h585.143v-219.429l438.857 365.714-438.857 365.714z" />
<glyph unicode="&#xe60c;" glyph-name="arrow-metro" data-tags="arrow-metro" d="M219.429 790.857l292.571-292.571h-512v-292.571h512l-292.571-292.571h365.714l438.857 438.857-438.857 438.857h-365.714z" />
<glyph unicode="&#xe60d;" glyph-name="arrow-redo" data-tags="arrow-redo" d="M585.143 717.714v-219.429c-619.301-6.949-585.143-512-585.143-512 173.861 306.176 585.143 219.429 585.143 219.429v-219.429l438.857 365.714-438.857 365.714z" />
<glyph unicode="&#xe60e;" glyph-name="arrow-refresh-left" data-tags="arrow-refresh-left" d="M532.553 864c-145.335 3.73-292.352-55.954-395.41-175.982l-134.875 118.857v-388.608l384 52.59-137.143 121.125c130.853 152.43 355.109 168.96 505.125 36.571 150.016-132.462 165.157-364.105 34.304-516.389-130.853-152.43-357.376-168.96-507.465-36.571-42.789 37.815-73.874 84.919-93.696 134.875l-144.018-27.429c27.721-80.603 73.874-156.745 141.751-217.161 209.993-185.417 529.92-163.109 713.143 50.322s162.011 536.869-47.982 722.286h-2.267c-91.867 81.115-202.386 122.807-315.465 125.733z" />
<glyph unicode="&#xe60f;" glyph-name="arrow-refresh-right" data-tags="arrow-refresh-right" d="M491.447 864c-113.079-2.926-223.525-44.617-315.465-125.733h-2.267c-210.066-185.417-231.278-508.855-47.982-722.286 183.223-213.431 503.15-235.739 713.143-50.322 67.877 60.416 113.957 136.485 141.751 217.161l-144.018 27.429c-20.187-49.883-50.907-97.061-93.696-134.875-150.016-132.389-376.539-115.858-507.465 36.571-130.853 152.43-115.712 384.146 34.304 516.389 150.089 132.389 374.272 115.931 505.125-36.571l-137.143-121.125 384-52.59v388.608l-134.875-118.857c-103.058 120.027-250.075 179.712-395.41 175.982z" />
<glyph unicode="&#xe610;" glyph-name="arrow-round" data-tags="arrow-round" d="M512 864c-282.77 0-512-229.23-512-512s229.23-512 512-512c282.77 0 512 229.23 512 512s-229.23 512-512 512zM585.143 571.429l292.571-219.429-292.571-219.429v146.286h-438.857v146.286h438.857v146.286z" />
<glyph unicode="&#xe611;" glyph-name="arrow-round-o" data-tags="arrow-round-o" d="M512 864c-282.77 0-512-229.23-512-512s229.23-512 512-512c282.77 0 512 229.23 512 512s-229.23 512-512 512zM512 736c212.041 0 384-171.959 384-384s-171.959-384-384-384c-212.041 0-384 171.959-384 384s171.959 384 384 384zM512 571.429v-146.286h-292.571v-146.286h292.571v-146.286l292.571 219.429-292.571 219.429z" />
<glyph unicode="&#xe612;" glyph-name="arrow-undo" data-tags="arrow-undo" d="M438.857 717.714l-438.857-365.714 438.857-365.714v219.429c0 0 411.282 86.747 585.143-219.429 0 0 34.158 505.051-585.143 512v219.429z" />
<glyph unicode="&#xe613;" glyph-name="atmospheric-pressure" data-tags="atmospheric-pressure" d="M146.286 864v-516.389l-66.267 66.267-52.59-52.59 155.429-155.429 155.429 155.429-52.59 52.59-66.267-66.267v516.389h-73.143zM731.429 864v-516.389l-66.267 66.267-52.59-52.59 155.429-155.429 155.429 155.429-52.59 52.59-66.267-66.267v516.389h-73.143zM438.857 498.286v-516.389l-66.267 66.267-52.59-52.59 155.429-155.429 155.429 155.429-52.59 52.59-66.267-66.267v516.389h-73.143z" />
<glyph unicode="&#xe614;" glyph-name="attach" data-tags="attach" d="M292.571 864c-36.571 0-62.976-26.405-73.143-36.571l-182.857-182.857c-10.167-10.167-36.571-36.571-36.571-73.143s26.405-62.976 36.571-73.143l73.143-73.143c10.167-10.167 23.259-16.018 36.571-16.018s26.405 5.851 36.571 16.018l36.571 36.571-73.143 73.143c-20.334 20.334-20.334 52.809 0 73.143l109.714 109.714c20.334 20.334 52.809 20.334 73.143 0l292.571-292.571c36.571-36.571 36.571-36.571 0-73.143l-73.143-73.143 73.143-73.143 146.286 146.286c20.334 20.334 20.334 52.809 0 73.143l-402.286 402.286c-10.167 10.167-36.571 36.571-73.143 36.571zM402.286 498.286l-146.286-146.286c-20.334-20.334-20.334-52.809 0-73.143l402.286-402.286c10.167-10.167 36.571-36.571 73.143-36.571s62.976 26.405 73.143 36.571l182.857 182.857c10.167 10.167 36.571 36.571 36.571 73.143s-56.101 92.672-66.267 102.839l-43.447 43.447c-10.167 10.167-23.259 16.018-36.571 16.018s-26.405-5.851-36.571-16.018l-36.571-36.571 73.143-73.143c20.334-20.334 20.334-52.809 0-73.143l-109.714-109.714c-20.334-20.334-52.809-20.334-73.143 0l-292.571 292.571c-36.571 36.571-36.571 36.571 0 73.143l73.143 73.143-73.143 73.143z" />
<glyph unicode="&#xe615;" glyph-name="bag" data-tags="bag" d="M512 864c-161.573 0-292.571-85.943-292.571-192v-173.714h-73.143c-40.375 0-73.143-37.815-73.143-73.143l-73.143-512c0-35.328 32.768-73.143 73.143-73.143h877.714c40.375 0 73.143 37.815 73.143 73.143l-73.143 512c0 35.328-32.768 73.143-73.143 73.143h-73.143v173.714c0 106.057-130.999 192-292.571 192zM512 790.857c121.198 0 219.429-48.201 219.429-118.857v-173.714h-438.857v173.714c0 70.656 98.231 118.857 219.429 118.857zM219.429 418.267v-139.41h73.143v139.41c42.862-14.921 73.143-54.857 73.143-102.839 0-60.562-49.152-109.714-109.714-109.714s-109.714 49.152-109.714 109.714c0 47.982 30.281 87.918 73.143 102.839zM731.429 418.267v-139.41h73.143v139.41c42.862-14.921 73.143-54.857 73.143-102.839 0-60.562-49.152-109.714-109.714-109.714s-109.714 49.152-109.714 109.714c0 47.982 30.281 87.918 73.143 102.839z" />
<glyph unicode="&#xe616;" glyph-name="battery-empty" data-tags="battery-empty" d="M438.857 864c-36.571 0-73.143-36.571-73.143-73.143v-73.143h-146.286v-877.714h585.143v877.714h-146.286v73.143c0 0 0 73.143-73.143 73.143h-146.286zM292.571 644.571h438.857v-731.429h-438.857v731.429z" />
<glyph unicode="&#xe617;" glyph-name="battery-full" data-tags="battery-full" d="M438.857 864c-36.571 0-73.143-36.571-73.143-73.143v-73.143h-146.286v-877.714h585.143v877.714h-146.286v73.143c0 0 0 73.143-73.143 73.143h-146.286zM292.571 644.571h438.857v-731.429h-438.857v731.429zM365.714 571.429v-146.286h292.571l-292.571 146.286zM365.714 352v-146.286h292.571v146.286h-292.571zM365.714 132.571v-146.286h292.571v146.286h-292.571z" />
<glyph unicode="&#xe618;" glyph-name="battery-half" data-tags="battery-half" d="M438.857 864c-36.571 0-73.143-36.571-73.143-73.143v-73.143h-146.286v-877.714h585.143v877.714h-146.286v73.143c0 0 0 73.143-73.143 73.143h-146.286zM292.571 644.571h438.857v-731.429h-438.857v731.429zM365.714 352v-146.286h292.571l-292.571 146.286zM365.714 132.571v-146.286h292.571v146.286h-292.571z" />
<glyph unicode="&#xe619;" glyph-name="bell" data-tags="bell" d="M512 864c-219.429 0-329.143-109.714-329.143-367.909 0-73.874 0-147.749-36.571-221.623-73.143-73.874-146.286-147.749-146.286-221.623h1024c0 73.874-73.143 147.749-146.286 221.623-36.571 73.874-36.571 147.749-36.571 221.623 0 258.341-109.714 367.909-329.143 367.909zM365.714-13.714c0-200.85 292.571-200.85 292.571 0h-292.571z" />
<glyph unicode="&#xe61a;" glyph-name="bin" data-tags="bin" d="M292.571 864v-73.143h-292.571v-146.286h1024v146.286h-292.571v73.143zM73.143 571.429l73.143-731.429h731.429l73.143 731.429zM219.429 425.143h146.286v-512h-146.286zM438.857 425.143h146.286v-512h-146.286zM658.286 425.143h146.286v-512h-146.286z" />
<glyph unicode="&#xe61b;" glyph-name="blinds" data-tags="blinds" d="M0 864v-146.286h256v-73.143h-109.714l-73.143-73.143h182.857v-73.143h-109.714l-73.143-73.143h182.857v-73.143h-109.714l-73.143-73.143h182.857v-73.143h-109.714l-73.143-73.143h182.857v-73.143h-109.714l-73.143-73.143h182.857v-73.143h-109.714l-73.143-73.143h877.714l-73.143 73.143h-109.714v73.143h182.857l-73.143 73.143h-109.714v73.143h182.857l-73.143 73.143h-109.714v73.143h182.857l-73.143 73.143h-109.714v73.143h182.857l-73.143 73.143h-109.714v73.143h182.857l-73.143 73.143h-109.714v73.143h256v146.286h-1024zM292.571 717.714h438.857v-73.143h-438.857v73.143zM292.571 571.429h438.857v-73.143h-438.857v73.143zM292.571 425.143h438.857v-73.143h-438.857v73.143zM292.571 278.857h438.857v-73.143h-438.857v73.143zM292.571 132.571h438.857v-73.143h-438.857v73.143zM292.571-13.714h438.857v-73.143h-438.857v73.143z" />
<glyph unicode="&#xe61c;" glyph-name="blower" data-tags="blower" d="M987.429 790.857c-20.261 0-36.571-16.311-36.571-36.571v-36.571c-179.931 0-372.882 0-548.571 0-222.208 0-402.286-180.151-402.286-402.286s180.078-402.286 402.286-402.286c222.208 0 402.286 180.151 402.286 402.286 0 38.4-5.998 74.533-16.018 109.714h162.304v-36.571c0-20.261 16.311-36.571 36.571-36.571s36.571 16.311 36.571 36.571v365.787c0 20.261-16.311 36.571-36.571 36.571zM402.286 571.502c141.385 0 256-114.615 256-256s-114.615-256-256-256c-141.385 0-256 114.615-256 256s114.615 256 256 256zM402.286 461.787c-80.823 0-146.286-65.536-146.286-146.286s65.463-146.286 146.286-146.286c80.823 0 146.286 65.536 146.286 146.286s-65.463 146.286-146.286 146.286z" />
<glyph unicode="&#xe61d;" glyph-name="book-opened-o" data-tags="book-opened-o" d="M256 790.857c-63.415 0-129.536-15.141-192-73.143h-64v-731.429h365.714c0-36.571 36.571-73.143 109.714-73.143s109.714 36.571 109.714 73.143h365.714v731.429h-73.143c-48.786 43.52-119.442 73.143-182.857 73.143s-125.001-15.141-187.465-73.143h-64c-48.786 43.52-124.050 73.143-187.465 73.143zM221.623 717.714c12.8 1.17 23.479 0 32.037 0 39.058 0.219 111.982 0 185.125-73.143v-585.143c-109.714 73.143-256 73.143-365.714 0v585.143c54.857 54.857 110.153 69.705 148.553 73.143zM662.674 717.714c13.458 1.17 24.503 0 34.304 0 34.158 0 107.447 0 180.59-73.143v-585.143c-109.714 73.143-256 73.143-365.714 0v585.143c54.857 54.857 110.373 69.705 150.894 73.143zM255.854 598.857c-45.714-0.878-91.429-12.434-109.714-34.304v-66.267c36.571 36.571 182.857 36.571 219.429 0v73.143c-18.286 18.286-64 28.306-109.714 27.429zM694.711 598.857c-45.714-0.878-91.429-12.434-109.714-34.304v-66.267c36.571 36.571 182.857 36.571 219.429 0v73.143c-18.286 18.286-64 28.306-109.714 27.429zM255.854 452.571c-45.714-0.878-91.429-12.434-109.714-34.304v-66.267c36.571 36.571 182.857 36.571 219.429 0v73.143c-18.286 18.286-64 28.306-109.714 27.429zM694.711 452.571c-45.714-0.878-91.429-12.434-109.714-34.304v-66.267c36.571 36.571 182.857 36.571 219.429 0v73.143c-18.286 18.286-64 28.306-109.714 27.429zM255.854 306.286c-45.714-0.878-91.429-12.434-109.714-34.304v-66.267c36.571 36.571 182.857 36.571 219.429 0v73.143c-18.286 18.286-64 28.306-109.714 27.429zM694.711 306.286c-45.714-0.878-91.429-12.434-109.714-34.304v-66.267c36.571 36.571 182.857 36.571 219.429 0v73.143c-18.286 18.286-64 28.306-109.714 27.429z" />
<glyph unicode="&#xe61e;" glyph-name="box" data-tags="box" d="M0 864v-365.714h1024v365.714h-1024zM365.714 827.429h292.571v-182.857l-73.143 73.143-73.143-73.143-73.143 73.143-73.143-73.143v182.857zM73.143 425.143v-585.143h877.714v585.143h-877.714zM365.714 278.857h292.571c40.521 0 73.143-32.622 73.143-73.143s-32.622-73.143-73.143-73.143h-292.571c-40.521 0-73.143 32.622-73.143 73.143s32.622 73.143 73.143 73.143z" />
<glyph unicode="&#xe61f;" glyph-name="brightness" data-tags="brightness" d="M512 864c0 0-36.571 0-36.571-36.571v-146.286c0-36.571 36.571-36.571 36.571-36.571s36.571 0 36.571 36.571v146.286c0 36.571-36.571 36.571-36.571 36.571zM512 644.571c-78.482 0-150.894-29.769-203.41-80.018 5.486 6.875 18.944 24.503-2.267 45.714l-105.179 102.839c-25.893 25.673-50.322 0-50.322 0s-25.893-24.43 0-50.322l102.839-105.179c21.358-21.358 38.912-7.826 45.714-2.267-50.249-52.517-80.018-125.001-80.018-203.41 0-78.994 31.451-150.821 82.286-203.41-3.803 3.511-24.283 21.358-47.982-2.267l-102.839-105.179c-25.746-26.039 0-50.322 0-50.322s24.357-25.966 50.322 0l105.179 102.839c21.358 21.358 7.826 38.912 2.267 45.714 52.517-50.249 125.001-80.018 203.41-80.018 78.482 0 150.894 29.769 203.41 80.018-5.486-6.802-19.017-24.357 2.267-45.714l105.179-102.839c25.966-25.893 50.322 0 50.322 0s25.893 24.357 0 50.322l-102.839 105.179c-21.358 21.358-38.912 7.826-45.714 2.267 50.249 52.517 80.018 125.001 80.018 203.41 0 78.994-31.451 150.821-82.286 203.41 3.877-3.511 24.357-21.358 47.982 2.267l102.839 105.179c25.893 25.893 0 50.322 0 50.322s-24.43 25.819-50.322 0l-102.839-102.839c-22.894-22.747-6.729-42.935-2.267-47.982-52.736 51.566-126.098 82.286-205.751 82.286zM804.571 352c0 0 0-36.571 36.571-36.571h146.286c36.645 0 36.571 36.571 36.571 36.571s0 36.571-36.571 36.571c-18.725 0-146.286 0-146.286 0-36.571 0.146-36.571-36.571-36.571-36.571zM512 59.429c0 0-36.571 0-36.571-36.571v-146.286c0-36.571 36.571-36.571 36.571-36.571s36.571 0 36.571 36.571v146.286c0 36.571-36.571 36.571-36.571 36.571zM219.429 352c0 0 0 36.571-36.571 36.571-18.725 0-146.286 0-146.286 0-36.571 0-36.571-36.571-36.571-36.571s0-36.645 36.571-36.571h146.286c36.571 0 36.571 36.571 36.571 36.571zM512 571.429h9.143c116.517-5.851 210.286-101.888 210.286-219.429s-93.769-213.577-210.286-219.429h-9.143v6.875c0 108.91 0 318.537 0 427.447v4.608z" />
<glyph unicode="&#xe620;" glyph-name="building" data-tags="building" d="M146.286 864v-877.714h292.571v219.429h146.286v-219.429h292.571v877.714h-731.429zM219.429 790.857h146.286v-146.286h-146.286v146.286zM438.857 790.857h146.286v-146.286h-146.286v146.286zM658.286 790.857h146.286v-146.286h-146.286v146.286zM219.429 498.286h146.286v-146.286h-146.286v146.286zM438.857 498.286h146.286v-146.286h-146.286v146.286zM658.286 498.286h146.286v-146.286h-146.286v146.286zM219.429 205.714h146.286v-146.286h-146.286v146.286zM658.286 205.714h146.286v-146.286h-146.286v146.286zM0-86.857v-73.143h1024v73.143h-1024z" />
<glyph unicode="&#xe621;" glyph-name="building-administrative" data-tags="building-administrative" d="M512 864l-512-219.429v-73.143h1024v73.143l-512 219.429zM512 800l365.714-155.429h-731.429l365.714 155.429zM146.286 498.286v-73.143h73.143l-36.571-365.714h-109.714v-73.143h877.714v73.143h-109.714l-36.571 365.714h73.143v73.143h-731.429zM292.571 425.143h182.857l-36.571-365.714h-109.714l-36.571 365.714zM548.571 425.143h182.857l-36.571-365.714h-109.714l-36.571 365.714zM0-86.857v-73.143h1024v73.143h-1024z" />
<glyph unicode="&#xe622;" glyph-name="buildings" data-tags="buildings" d="M438.857 864v-877.714h512v877.714h-512zM512 790.857h146.286v-146.286h-146.286v146.286zM731.429 790.857h146.286v-146.286h-146.286v146.286zM73.143 571.429v-585.143h292.571v585.143h-292.571zM146.286 498.286h146.286v-146.286h-146.286v146.286zM512 498.286h146.286v-146.286h-146.286v146.286zM731.429 498.286h146.286v-146.286h-146.286v146.286zM146.286 205.714h146.286v-146.286h-146.286v146.286zM512 205.714h146.286v-146.286h-146.286v146.286zM731.429 205.714h146.286v-146.286h-146.286v146.286zM73.143-86.857v-73.143h877.714v73.143h-877.714z" />
<glyph unicode="&#xe623;" glyph-name="business-man" data-tags="business-man" d="M512 864c-101.010 0-182.857-81.847-182.857-182.857s81.847-182.857 182.857-182.857c101.010 0 182.857 81.847 182.857 182.857s-81.847 182.857-182.857 182.857zM329.143 425.143c-70.656 0-182.857-45.129-182.857-109.714l-36.571-365.714c0-64.658 39.058-109.714 109.714-109.714h585.143c70.729 0 109.714 45.056 109.714 109.714l-36.571 365.714c0 64.585-112.128 109.714-182.857 109.714l36.571-146.286-73.143-73.143 73.143-36.571-146.286-256-36.571 365.714c36.571 36.571 36.571 40.302 36.571 73.143 0 40.375-32.768 73.143-73.143 73.143s-73.143-32.768-73.143-73.143c0-32.841 0-36.571 36.571-73.143l-36.571-365.714-146.286 256 73.143 36.571-73.143 73.143 36.571 146.286z" />
<glyph unicode="&#xe624;" glyph-name="calendar" data-tags="calendar" d="M219.429 864v-146.286h73.143v146.286h-73.143zM658.286 864v-146.286h73.143v146.286h-73.143zM0 790.857v-219.429h950.857v219.429h-146.286v-146.286h-219.429v146.286h-219.429v-146.286h-219.429v146.286h-146.286zM0 498.286v-658.286h950.857v658.286h-950.857zM73.143 425.143h219.429v-219.429h-219.429v219.429zM365.714 425.143h219.429v-219.429h-219.429v219.429zM658.286 425.143h219.429v-219.429h-219.429v219.429zM73.143 132.571h219.429v-219.429h-219.429v219.429zM658.286 132.571h219.429v-219.429h-219.429v219.429zM365.714 130.304h219.429v-217.161h-219.429v217.161z" />
<glyph unicode="&#xe625;" glyph-name="calendar-day" data-tags="calendar-day" d="M219.429 864v-146.286h73.143v146.286zM731.429 864v-146.286h73.143v146.286zM0 790.857v-950.857h1024v950.857h-146.286v-146.286h-219.429v146.286h-292.571v-146.286h-219.429v146.286zM73.143 571.429h877.714v-658.286h-877.714zM146.286 425.143v-146.286h146.286v146.286zM438.857 425.143v-146.286h146.286v146.286zM731.429 425.143v-146.286h146.286v146.286zM146.286 205.714v-146.286h146.286v146.286zM438.857 205.714v-146.286h146.286v146.286zM731.429 205.714v-146.286h146.286v146.286z" />
<glyph unicode="&#xe626;" glyph-name="calendar-day-detailed" data-tags="calendar-day-detailed" d="M219.429 864v-146.286h73.143v146.286zM731.429 864v-146.286h73.143v146.286zM0 790.857v-950.857h1024v950.857h-146.286v-146.286h-219.429v146.286h-292.571v-146.286h-219.429v146.286zM73.143 571.429h877.714v-658.286h-877.714zM365.714 498.286v-73.143h73.143v73.143zM512 498.286v-73.143h73.143v73.143zM658.286 498.286v-73.143h73.143v73.143zM804.571 498.286v-73.143h73.143v73.143zM219.429 352v-73.143h73.143v73.143zM365.714 352v-73.143h73.143v73.143zM512 352v-73.143h73.143v73.143zM658.286 352v-73.143h73.143v73.143zM804.571 352v-73.143h73.143v73.143zM219.429 205.714v-73.143h73.143v73.143zM365.714 205.714v-73.143h73.143v73.143zM512 205.714v-73.143h73.143v73.143zM658.286 205.714v-73.143h73.143v73.143zM804.571 205.714v-73.143h73.143v73.143zM219.429 59.429v-73.143h73.143v73.143zM365.714 59.429v-73.143h73.143v73.143zM512 59.429v-73.143h73.143v73.143z" />
<glyph unicode="&#xe627;" glyph-name="calendar-empty" data-tags="calendar-empty" d="M219.429 864v-146.286h73.143v146.286zM731.429 864v-146.286h73.143v146.286zM0 790.857v-950.857h1024v950.857h-146.286v-146.286h-219.429v146.286h-292.571v-146.286h-219.429v146.286zM73.143 571.429h877.714v-658.286h-877.714z" />
<glyph unicode="&#xe628;" glyph-name="calendar-month" data-tags="calendar-month" d="M219.429 864v-146.286h73.143v146.286h-73.143zM731.429 864v-146.286h73.143v146.286h-73.143zM0 790.857v-950.857h1024v950.857h-146.286v-146.286h-219.429v146.286h-292.571v-146.286h-219.429v146.286h-146.286zM73.143 571.429h877.714v-658.286h-877.714v658.286zM144.018 425.143v-365.714h54.857v155.429h116.59v61.733h-116.59v86.894h134.875v61.733h-189.733zM381.733 425.216v-365.714h212.553v61.733h-155.429v98.304h139.41v61.733h-139.41v82.286h150.894v61.733h-208.018zM642.341 425.289v-365.714h96.037c41.253 0 66.414 1.609 77.751 4.608 16.311 4.315 31.451 15.945 43.447 34.304 11.922 18.359 16.018 39.717 16.018 66.267 0 21.87-4.315 41.911-13.751 57.125-9.362 15.287-22.235 25.673-38.839 32.037 11.63 6.802 22.455 17.847 29.696 32.037 7.314 14.19 9.143 28.16 9.143 45.714 0 19.090-2.926 37.449-11.41 52.59-8.558 15.067-19.602 26.039-32.037 32.037s-33.426 9.143-64 9.143h-111.982zM699.538 363.703h32.037c29.769 0 46.299-0.658 52.59-2.267 6.29-1.682 11.557-7.022 16.018-13.751 4.389-6.729 6.875-14.336 6.875-25.161 0-12.142-1.463-22.674-6.875-29.696s-13.239-9.801-22.894-11.41c-5.266-0.805-18.798-2.267-41.179-2.267h-36.571v84.553zM699.538 219.685h45.714c24.21 0 40.155-1.682 47.982-4.608s13.531-8.265 18.286-16.018c4.754-7.68 6.875-17.774 6.875-29.696 0-11.63-2.414-22.162-6.875-29.696-4.389-7.534-9.509-11.118-16.018-13.751-6.51-2.56-22.747-4.608-45.714-4.608h-50.322v98.304z" />
<glyph unicode="&#xe629;" glyph-name="calendar-week" data-tags="calendar-week" d="M219.429 864v-148.553h73.143v148.553h-73.143zM731.429 864v-148.553h73.143v148.553h-73.143zM0 790.857v-950.784h1024v950.857h-146.286v-148.553h-219.429v148.553h-292.571v-148.553h-219.429v148.553h-146.286zM73.143 569.307h877.714v-656.018h-877.714v656.018zM146.286 498.432v-73.143h731.429v73.143h-731.429zM146.286 352.146v-73.143h731.429v73.143h-731.429zM146.286 205.861v-73.143h731.429v73.143h-731.429zM146.286 59.575v-73.143h731.429v73.143h-731.429z" />
<glyph unicode="&#xe62a;" glyph-name="callout" data-tags="callout" d="M146.286 864c-81.042 0-146.286-65.243-146.286-146.286v-365.714c0-81.042 65.243-146.286 146.286-146.286h294.766l290.304-365.714v365.714h146.286c81.042 0 146.286 65.243 146.286 146.286v365.714c0 81.042-65.243 146.286-146.286 146.286h-731.429zM219.355 608c40.375 0 73.143-32.768 73.143-73.143s-32.768-73.143-73.143-73.143c-40.375 0-73.143 32.768-73.143 73.143s32.768 73.143 73.143 73.143zM511.927 608c40.375 0 73.143-32.768 73.143-73.143s-32.768-73.143-73.143-73.143c-40.375 0-73.143 32.768-73.143 73.143s32.768 73.143 73.143 73.143zM804.498 608c40.375 0 73.143-32.768 73.143-73.143s-32.768-73.143-73.143-73.143c-40.375 0-73.143 32.768-73.143 73.143s32.768 73.143 73.143 73.143z" />
<glyph unicode="&#xe62b;" glyph-name="car" data-tags="car" d="M365.714 644.571c-45.349 0.073-95.744-1.17-153.161-6.875-63.781-5.632-108.178-17.627-130.267-41.179-30.574-34.45-67.145-85.87-80.018-137.143-9.728-38.766 6.583-200.338 16.018-210.286 0 0 19.749-4.608 36.571-4.608h57.125c3.438-62.976 51.419-111.982 109.714-111.982s106.277 49.079 109.714 111.982h361.179c8.704-64.731 50.469-111.982 111.982-111.982s103.278 47.323 111.982 111.982h34.304c37.157 0 71.022 12.361 73.143 43.447l-6.875 84.553c-24.21 50.103-91.429 91.648-212.553 116.59-60.050 12.361-69.12 15.579-107.447 43.447-104.375 75.922-195.365 109.861-331.41 111.982zM219.429 319.89c40.521 0 73.143-32.622 73.143-73.143s-32.622-73.143-73.143-73.143c-40.521 0-73.143 32.622-73.143 73.143s32.622 73.143 73.143 73.143zM804.571 315.282c40.521 0 73.143-32.622 73.143-73.143s-32.622-73.143-73.143-73.143c-40.521 0-73.143 32.622-73.143 73.143s32.622 73.143 73.143 73.143z" />
<glyph unicode="&#xe62c;" glyph-name="catalog" data-tags="catalog" d="M146.286 864v-73.143h-146.286v-219.429h146.286v-73.143h-146.286v-219.429h146.286v-73.143h-146.286v-219.429h146.286v-146.286h804.571v512h73.143v512h-877.714zM73.143 717.714h73.143v-73.143h-73.143v73.143zM365.714 717.714h365.714v-146.286h-365.714v146.286zM73.143 425.143h73.143v-73.143h-73.143v73.143zM73.143 132.571h73.143v-73.143h-73.143v73.143z" />
<glyph unicode="&#xe62d;" glyph-name="catalog-o" data-tags="catalog-o" d="M66.267 864v-146.286h-66.267v-73.143h66.267v-146.286h-66.267v-73.143h66.267v-146.286h-66.267v-73.143h66.267v-146.286h-66.267v-73.143h66.267v-146.286h957.733v1024h-957.44zM146.578 790.857h797.696v-877.714h-797.696v877.714zM292.864 717.714c-6.729 0-14.336-0.219-20.553-2.267s-10.825-3.584-16.018-6.875c-5.193-3.291-9.801-8.85-13.751-13.751-3.877-4.827-6.583-10.386-9.143-16.018h29.696c2.048 2.048 4.535 5.339 6.875 6.875s4.535 1.243 6.875 2.267c2.341 1.024 4.023 3.803 6.875 4.608 2.853 0.073 5.998 0 9.143 0 2.56 0 6.29 0.073 9.143 0s4.242-3.584 6.875-4.608c2.56-1.024 4.535-0.073 6.875-2.267 2.341-1.536 5.266-4.827 6.875-6.875h29.696c-2.56 5.632-4.974 11.191-9.143 16.018s-8.558 10.386-13.751 13.751c-5.193 3.291-12.288 4.827-18.286 6.875s-11.557 2.267-18.286 2.267zM505.417 717.714c-6.729 0-14.336-0.219-20.553-2.267s-11.045-3.584-16.018-6.875c-4.901-3.291-9.582-8.85-13.751-13.751-4.169-4.827-6.583-10.386-9.143-16.018h29.696c1.536 2.048 2.267 5.339 4.608 6.875s6.802 1.243 9.143 2.267c2.341 1.024 4.023 3.803 6.875 4.608 2.853 0.073 5.998 0 9.143 0s6.583 0.073 9.143 0c2.56-0.073 4.242-3.584 6.875-4.608 2.56-1.024 4.535-0.073 6.875-2.267 2.341-1.536 5.266-4.827 6.875-6.875h29.696c-2.56 5.632-4.974 11.191-9.143 16.018s-8.558 10.386-13.751 13.751c-5.193 3.291-12.361 4.827-18.286 6.875-5.998 2.048-11.557 2.267-18.286 2.267zM537.454 667.392v-182.857l-105.179 102.839v-102.839l-105.179 102.839v-102.839l-107.447 102.839v-235.447h372.59v315.465h-54.857zM338.505 653.641c2.56-6.144 7.534-11.41 11.41-16.018s8.558-7.899 13.751-11.41c5.193-3.584 9.801-7.095 16.018-9.143s12.069-2.267 18.286-2.267c6.729 0 14.336 0.219 20.553 2.267s10.825 5.559 16.018 9.143c5.193 3.584 9.801 6.875 13.751 11.41 3.877 4.608 6.583 9.874 9.143 16.018h-27.429c-2.048-2.048-4.754-5.047-6.875-6.875-2.048-1.755-4.242-1.243-6.875-2.267-2.56-1.024-6.29-1.755-9.143-2.267s-5.998-2.267-9.143-2.267c-2.56 0-4.023 1.755-6.875 2.267s-6.583 1.243-9.143 2.267c-2.56 1.024-4.535 0.512-6.875 2.267s-5.266 4.827-6.875 6.875h-29.696zM731.648 644.498v-73.143h146.286v73.143h-146.286zM731.648 498.213v-73.143h146.286v73.143h-146.286zM247.077 457.033h25.161v-25.161h-25.161v25.161zM299.666 457.033h27.429v-25.161h-27.429v25.161zM352.256 457.033h27.429v-25.161h-27.429v25.161zM404.846 457.033h27.429v-25.161h-27.429v25.161zM457.435 457.033h27.429v-25.161h-27.429v25.161zM512.293 457.033h25.161v-25.161h-25.161v25.161zM247.15 404.443h25.161v-25.161h-25.161v25.161zM299.739 404.443h27.429v-25.161h-27.429v25.161zM352.329 404.443h27.429v-25.161h-27.429v25.161zM404.919 404.443h27.429v-25.161h-27.429v25.161zM457.509 404.443h27.429v-25.161h-27.429v25.161zM512.366 404.443h25.161v-25.161h-25.161v25.161zM731.794 351.854v-73.143h146.286v73.143h-146.286zM219.794 205.568v-73.143h438.857v73.143h-438.857zM731.794 205.568v-73.143h146.286v73.143h-146.286zM219.794 59.282v-73.143h438.857v73.143h-438.857zM731.794 59.282v-73.143h146.286v73.143h-146.286z" />
<glyph unicode="&#xe62e;" glyph-name="chart" data-tags="chart" d="M0 864v-1024h1024v73.143h-182.857c-329.143 73.143-694.857 438.857-768 658.286v292.571h-73.143zM73.143 425.143c18.725-55.954 189.074-255.781 256-292.571h-256v292.571zM73.143 59.429h329.143c48.201-31.89 142.043-101.449 256-146.286h-585.143v146.286z" />
<glyph unicode="&#xe62f;" glyph-name="chart-curve" data-tags="chart-curve" d="M0 864v-1024h1024v73.143h-950.857v402.286c63.927 42.642 128.073 64.878 189.733 64 71.68-1.097 146.286-29.696 219.429-102.839 48.64-44.69 75.557-55.735 153.161-59.465 53.906 4.608 105.253 23.479 150.894 50.322 45.641 26.77 89.746 60.27 128 82.286 38.254 22.089 89.527 43.154 109.714 41.179l9.143 57.125c-48.421 4.901-110.592-28.014-153.161-52.59s-86.016-55.369-128-80.018c-41.984-24.649-91.648-36.571-128-36.571-65.463 0-97.573 46.665-144.018 73.143-71.168 58.514-136.411 83.456-214.894 84.553-66.194 1.024-130.633-18.213-192-52.59v201.143l9.143 4.608c76.434 47.177 181.102 80.53 256 61.733 37.449-9.362 68.901-30.062 96.037-73.143 20.114-31.963 35.035-77.751 43.447-137.143l20.553-13.751 52.59-38.839c-5.266 94.354-24.722 167.863-57.125 219.429-34.011 54.053-85.943 87.113-139.41 100.571-13.385 3.438-25.234 3.365-38.839 4.608-84.48 7.973-171.081-22.601-242.322-61.733v212.553h-73.143zM512.073 178.286c2.706-11.483 5.705-25.015 9.143-34.304 21.504-57.929 55.515-99.547 100.571-123.465 45.056-23.845 98.962-28.891 157.696-20.553 58.734 8.265 123.392 29.33 196.608 57.125l9.143 59.465c-70.656-26.917-165.522-50.176-214.894-57.125s-85.943-3.511-114.322 11.41c-25.819 13.678-48.494 38.107-66.267 80.018-18.213 2.926-47.689 14.482-77.751 27.429z" />
<glyph unicode="&#xe630;" glyph-name="chart-line" data-tags="chart-line" d="M0 864v-1024h1024v73.143h-950.857v342.894l205.751 246.857c4.827-1.024 8.558-4.608 13.751-4.608 5.12 0 8.85 3.584 13.751 4.608l219.429-258.267c-7.534-11.483-13.751-24.064-13.751-38.839 0-40.375 32.768-73.143 73.143-73.143s73.143 32.768 73.143 73.143c0 18.432-7.095 35.182-18.286 47.982l68.608 105.179c7.607-2.706 14.336-6.875 22.894-6.875 8.485 0 15.287 4.169 22.894 6.875l68.608-105.179c-11.191-12.873-18.286-29.623-18.286-47.982 0-40.375 32.768-73.143 73.143-73.143s73.143 32.768 73.143 73.143c0 40.375-32.768 73.143-73.143 73.143-8.338 0-15.433-2.048-22.894-4.608l-68.608 102.839c11.191 12.873 18.286 29.623 18.286 47.982 0 40.375-32.768 73.143-73.143 73.143s-73.143-32.768-73.143-73.143c0-18.432 7.095-35.182 18.286-47.982l-68.608-102.839c-7.461 2.56-14.555 4.608-22.894 4.608-11.922 0-22.089-4.096-32.037-9.143l-210.286 246.857c14.555 13.385 22.894 33.573 22.894 54.857 0 40.375-32.768 73.143-73.143 73.143s-73.143-32.768-73.143-73.143c0-21.285 8.338-41.472 22.894-54.857l-169.179-201.143v548.571h-73.143z" />
<glyph unicode="&#xe631;" glyph-name="chart-pie" data-tags="chart-pie" d="M514.194 864c-49.518 0.805-100.791-4.827-148.553-18.286l11.41-38.839 9.143-32.037 125.733-422.839h512c0 145.627-61.879 291.913-182.857 393.143-95.305 79.726-211.237 117.614-326.875 118.857zM281.015 806.875c-59.246-30.135-114.469-69.413-160.037-123.465-182.199-216.064-154.331-540.087 61.733-722.286 94.501-79.726 209.627-120.027 324.608-121.125 147.749-1.463 295.497 61.367 397.751 182.857 61.367 72.777 104.229 168.448 118.857 256h-585.143l-155.429 528.018h-2.267zM495.982 783.982c102.766-1.024 207.872-33.134 292.571-100.571 86.016-68.535 137.947-161.134 155.429-258.267h-377.125l-107.447 356.571c12.215 0.512 24.283 2.487 36.571 2.267z" />
<glyph unicode="&#xe632;" glyph-name="chart-ranking" data-tags="chart-ranking" d="M0 790.857v-438.857h1024v438.857h-1024zM73.143 717.714h877.714v-292.571h-877.714v292.571zM146.286 644.571v-146.286h585.143v146.286h-585.143zM0 278.857v-438.857h1024v438.857h-1024zM73.143 205.714h877.714v-292.571h-877.714v292.571zM146.286 132.571v-146.286h365.714v146.286h-365.714z" />
<glyph unicode="&#xe633;" glyph-name="chart-sankey" data-tags="chart-sankey" d="M768 864l-182.857-219.429h73.143c0-146.286-73.143-146.286-146.286-146.286h-512v-219.429h585.143c292.571 0 292.571 292.571 292.571 365.714h73.143l-182.857 219.429zM0 205.714v-146.286h658.286c73.143 0 73.143-36.571 73.143-73.143h-73.143l146.286-146.286 146.286 146.286h-73.143c0 146.286-36.571 219.429-182.857 219.429h-694.857z" />
<glyph unicode="&#xe634;" glyph-name="chart-scatter" data-tags="chart-scatter" d="M0 864v-1024h1024v73.143h-950.857v950.857h-73.143zM512 644.571c-40.375 0-73.143-32.768-73.143-73.143s32.768-73.143 73.143-73.143c40.375 0 73.143 32.768 73.143 73.143s-32.768 73.143-73.143 73.143zM365.714 461.714c-40.375 0-73.143-32.768-73.143-73.143s32.768-73.143 73.143-73.143c40.375 0 73.143 32.768 73.143 73.143s-32.768 73.143-73.143 73.143zM585.143 425.143c-40.375 0-73.143-32.768-73.143-73.143s32.768-73.143 73.143-73.143c40.375 0 73.143 32.768 73.143 73.143s-32.768 73.143-73.143 73.143zM219.429 278.857c-40.375 0-73.143-32.768-73.143-73.143s32.768-73.143 73.143-73.143c40.375 0 73.143 32.768 73.143 73.143s-32.768 73.143-73.143 73.143zM731.429 205.714c-40.375 0-73.143-32.768-73.143-73.143s32.768-73.143 73.143-73.143c40.375 0 73.143 32.768 73.143 73.143s-32.768 73.143-73.143 73.143zM950.857 205.714c-40.375 0-73.143-32.768-73.143-73.143s32.768-73.143 73.143-73.143c40.375 0 73.143 32.768 73.143 73.143s-32.768 73.143-73.143 73.143z" />
<glyph unicode="&#xe635;" glyph-name="chart-spectral" data-tags="chart-spectral" d="M0 864v-1024h1024v1024h-1024zM73.143 790.857h877.714v-877.714h-877.714v877.714zM146.286 717.714v-146.286h146.286v146.286h-146.286zM292.571 571.429v-146.286h146.286v146.286h-146.286zM438.857 571.429h146.286v146.286h-146.286v-146.286zM438.857 425.143v-146.286h146.286v146.286h-146.286zM585.143 278.857v-146.286h146.286v146.286h-146.286zM731.429 278.857h146.286v146.286h-146.286v-146.286zM731.429 132.571v-146.286h146.286v146.286h-146.286zM438.857 278.857h-146.286v-146.286h146.286v146.286zM292.571 132.571h-146.286v-146.286h146.286v146.286zM292.571 278.857v146.286h-146.286v-146.286h146.286zM731.429 717.714v-146.286h146.286v146.286h-146.286z" />
<glyph unicode="&#xe636;" glyph-name="check" data-tags="check" d="M829.733 779.447l-464.018-464.018-171.447 171.447-194.267-196.608 219.429-219.429 25.161-22.894 73.143-73.143 47.982-50.322 658.286 658.286-47.982 50.322-98.304 96.037-47.982 50.322z" />
<glyph unicode="&#xe637;" glyph-name="check-round" data-tags="check-round" d="M512 864c-282.77 0-512-229.23-512-512s229.23-512 512-512c282.77 0 512 229.23 512 512s-229.23 512-512 512zM740.571 598.857l100.571-100.571-438.857-365.714-219.429 219.429 100.571 100.571 118.857-123.465 338.286 269.751z" />
<glyph unicode="&#xe638;" glyph-name="check-round-o" data-tags="check-round-o" d="M512 864c-282.77 0-512-229.23-512-512s229.23-512 512-512c282.77 0 512 229.23 512 512s-229.23 512-512 512zM512 736c212.041 0 384-171.959 384-384s-171.959-384-384-384c-212.041 0-384 171.959-384 384s171.959 384 384 384zM713.143 560.018l-299.447-237.714-105.179 107.447-89.161-89.161 194.267-196.608 390.875 326.875-91.429 89.161z" />
<glyph unicode="&#xe639;" glyph-name="chemical-waste" data-tags="chemical-waste" d="M146.286 864v-73.143h-109.714c-20.261 0-36.571-16.311-36.571-36.571s16.311-36.571 36.571-36.571h36.571v-219.429h-36.571c-20.261 0-36.571-16.311-36.571-36.571s16.311-36.571 36.571-36.571h36.571v-221.623h-36.571c-20.261 0-36.571-16.311-36.571-36.571s16.311-36.571 36.571-36.571h36.571v-217.161h-36.571c-20.261 0-36.571-16.311-36.571-36.571s16.311-36.571 36.571-36.571h203.41c-11.849 22.821-14.702 47.835-11.41 75.41 4.389 37.010 26.185 64.585 43.447 84.553l2.267 2.267 217.161 274.286v100.571c-35.913 17.189-66.267 47.47-66.267 89.161 0 57.417 50.030 105.179 107.447 105.179h260.608c4.023 0 7.461-1.829 11.41-2.267v148.553h36.571c20.261 0 36.571 16.311 36.571 36.571s-16.311 36.571-36.571 36.571h-548.571v73.143h-146.286zM532.626 498.359c-18.213 0-34.304-13.824-34.304-32.037s16.091-34.304 34.304-34.304h32.037v-180.59l-235.447-297.179c-15.214-17.335-25.161-29.111-27.429-47.982s4.827-40.887 16.018-50.322c22.382-18.871 50.322-16.018 50.322-16.018h591.945c2.706-0.293 5.851-0.293 11.41 0 8.338 0.366 20.553 1.317 34.304 11.41 13.751 10.167 20.846 37.23 16.018 54.857s-14.994 28.599-32.037 47.982l-226.304 297.179v180.59h29.696c18.213 0 34.304 16.091 34.304 34.304s-16.091 32.037-34.304 32.037h-260.608zM640 205.714h41.179l224.037-292.571h-498.322l233.179 292.571z" />
<glyph unicode="&#xe63a;" glyph-name="clock" data-tags="clock" d="M450.267 790.857c-240.64-12.654-438.345-206.702-450.267-452.608-12.727-262.29 190.318-485.522 452.608-498.322s485.522 190.318 498.322 452.608c12.727 262.29-190.318 485.522-452.608 498.322-16.384 0.805-31.963 0.878-47.982 0zM438.93 644.571h73.143v-267.41c21.358-12.8 36.571-35.035 36.571-61.733 0-5.925-3.218-10.459-4.608-16.018l189.733-192-50.322-50.322-192 189.733c-5.559-1.317-10.094-4.608-16.018-4.608-40.375 0-73.143 32.768-73.143 73.143 0 26.697 15.214 48.933 36.571 61.733v267.41z" />
<glyph unicode="&#xe63b;" glyph-name="close-label" data-tags="close-label" d="M358.839 790.857c10.971 2.121-23.479-4.901-32.037-13.751l-313.125-356.571c-8.485-8.85-13.751-20.407-13.751-32.037s5.193-23.186 13.751-32.037l306.322-356.571c8.485-8.777 20.846-13.751 32.037-13.751h635.465c24.21 0 36.571 11.337 36.571 36.571v731.429c0 25.234-12.361 36.571-36.571 36.571h-628.59zM507.465 607.854l146.286-146.286 144.018 146.286 73.143-73.143-144.018-146.286 144.018-146.286-73.143-73.143-144.018 146.286-146.286-146.286-70.875 73.143 144.018 146.286-144.018 146.286 70.875 73.143z" />
<glyph unicode="&#xe63c;" glyph-name="close-round" data-tags="close-round" d="M475.429 790.857c-262.656 0.146-475.429-212.846-475.429-475.429 0-262.51 212.919-475.429 475.429-475.429s475.429 212.919 475.429 475.429c0 262.583-212.846 475.429-475.429 475.429zM329.143 571.429l146.286-153.161 146.286 153.161 109.714-109.714-153.161-146.286 153.161-146.286-109.714-109.714-146.286 153.161-146.286-153.161-109.714 109.714 153.161 146.286-153.161 146.286 109.714 109.714z" />
<glyph unicode="&#xe63d;" glyph-name="cloud" data-tags="cloud" d="M616.667 644.571c-88.576 0-157.842-16.53-207.067-47.982-28.453-18.139-50.176-42.862-63.707-68.608-4.535 2.779-3.877 1.975-9.070 4.535-33.499 16.677-83.675 27.063-134.29-2.267-47.909-29.696-62.318-83.31-63.707-121.125-0.366-9.435 1.609-7.826 2.267-16.018-14.117 2.194-16.238 6.144-34.158 4.535-22.967-1.975-49.006-7.461-70.51-27.429s-35.913-53.833-36.425-91.429c-0.512-37.522 11.118-68.608 29.55-91.429 43.52-54.784 88.357-54.784 147.749-54.784 170.423 0.805 340.846-0.805 511.269 0 103.57 0 180.443-5.705 236.69 14.848 28.087 10.313 54.272 34.523 71.241 55.954 16.969 21.358 27.282 47.689 27.282 75.41-0.878 46.885-12.654 84.699-34.158 109.714s-52.078 34.377-77.385 36.571c-24.21 2.048-26.478-4.535-43.227-9.143 2.706 25.527 9.143 41.765-6.802 86.894-24.942 70.29-99.547 141.751-245.76 141.751z" />
<glyph unicode="&#xe63e;" glyph-name="cloud-o" data-tags="cloud-o" d="M616.667 644.571c-88.576 0.073-157.842-16.53-207.067-47.982-28.453-18.139-50.176-42.862-63.707-68.608-4.535 2.779-3.877 1.975-9.070 4.535-33.499 16.677-83.675 27.063-134.29-2.267-47.909-29.696-62.318-83.31-63.707-121.125-0.366-9.435 1.609-7.826 2.267-16.018-14.117 2.194-16.238 6.144-34.158 4.535-22.967-1.975-49.006-7.461-70.51-27.429s-35.913-53.833-36.425-91.429c-0.512-37.522 11.118-68.608 29.55-91.429 43.52-54.784 88.357-54.784 147.895-54.784 170.423 0.805 340.846-0.805 511.269 0 103.57 0.073 180.443-5.705 236.69 14.848 28.087 10.313 54.272 34.523 71.241 55.954 16.969 21.358 27.282 47.689 27.282 75.41-0.878 46.885-12.654 84.699-34.158 109.714s-52.078 34.377-77.385 36.571c-24.21 2.048-26.478-4.535-43.227-9.143 2.706 25.527 9.143 41.765-6.802 86.894-24.942 70.29-99.547 141.751-245.76 141.751zM616.594 571.502c125.44 0 158.72-47.25 175.25-93.696 16.53-46.519 6.802-96.037 6.802-96.037l-15.945-70.875 65.975 32.037c83.456 40.887 102.107-29.257 102.107-51.054 1.975-49.225-49.152-86.016-94.939-86.016-73.143 0-91.209 0.878-169.106 0h-247.954c0 0-219.429 0-262.363 0s-99.474 0-101.376 72.997c-1.975 73.143 72.704 46.373 145.627 20.553-26.624 70.875-23.406 127.049 18.213 169.179 26.185 14.19 46.811 9.509 65.975 0 19.749-9.801 34.158-25.161 34.158-25.161l70.51-57.125-4.535 82.286c-1.024 19.163 9.289 42.35 43.227 64s90.331 39.205 168.375 38.839z" />
<glyph unicode="&#xe63f;" glyph-name="clouds" data-tags="clouds" d="M740.571 646.839c-126.464-2.853-155.429-111.982-155.429-111.982s106.057-48.274 109.714-182.857c54.565-16.384 107.886-77.385 109.714-182.857h73.143c73.070 2.779 147.017 35.694 146.286 116.59 7.899 126.683-109.714 139.41-109.714 139.41s25.527 198.071-146.286 219.429c-9.874 3.145-23.552 1.975-27.429 2.267zM438.857 534.857c-109.714 0-146.286-36.571-182.857-109.714 0 0-49.518 34.816-109.714 0-53.833-33.28-36.571-109.714-36.571-109.714s-109.714-36.571-109.714-146.286c0-109.714 146.286-109.714 146.286-109.714h438.857c0 0 128.073-6.363 148.553 109.714 7.899 126.683-111.982 146.286-111.982 146.286-3.438 121.71-73.143 219.429-182.857 219.429z" />
<glyph unicode="&#xe640;" glyph-name="clouds-o" data-tags="clouds-o" d="M512 516.133c0 0-21.504 15.141-64 16.238-42.496 1.024-93.184-8.923-130.267-34.158s-34.67-47.762-49.152-73.143c-25.527 10.167-63.781 21.723-110.885-7.314-36.425-23.991-49.664-65.463-52.59-95.086-1.317-13.458-0.805-14.921 0-24.357-31.451-15.579-105.179-57.856-105.179-165.742 0-35.401 16.457-66.414 34.304-87.771 17.774-21.358 41.179-33.207 61.733-41.472 41.106-16.457 80.018-17.042 80.018-17.042h406.894c0 0 2.194 0 2.267 0 146.286 0 142.848 73.143 146.286 146.286h170.715c85.285 0 121.856 81.701 121.856 120.247 0 84.919-42.496 142.263-108.544 146.213 62.83 146.066-110.885 245.541-196.827 245.541-133.486 0-206.629-73.143-206.629-128.439zM719.214 571.429c65.975 0 119.15-48.933 131.072-92.672 17.335-50.542-17.189-97.134-45.714-126.757 96.11 0 146.286-32.037 146.286-96.549 0-49.737-55.296-49.737-73.143-49.737h-146.286c0 0 0 73.143-66.267 92.599-6.875 53.687-6.875 126.83-80.018 170.496 0 67.657 73.143 102.546 134.071 102.546zM448 459.154c52.809-0.878 97.499-46.519 116.59-87.771 5.778-13.239 10.386-28.306 13.751-43.886 3.291-15.579 6.363-31.232 6.875-48.786 0-0.805 0-1.609 0-2.414v-29.257c71.314-7.168 73.143-41.399 73.143-114.542s-70.875-73.143-70.875-73.143c-137.143 0-274.286 0-411.429 0 0 0-29.989 1.317-57.125 12.215-13.531 5.413-26.478 12.581-34.304 21.943s-11.41 19.822-11.41 38.985c0 84.919 77.751 109.714 77.751 109.714l29.696 12.215-6.875 31.671c0 0-1.609 12.581 0 29.257 1.536 15.872 5.998 29.915 18.286 38.985 40.594 25.088 66.267 2.414 66.267 2.414l32.037-24.357 18.286 38.985c16.018 34.231 29.696 55.223 47.982 68.242s38.619 20.407 91.429 19.529z" />
<glyph unicode="&#xe641;" glyph-name="co2" data-tags="co2" d="M201.143 644.571c-36.645 0-71.095-9.362-102.839-27.429s-56.101-41.179-73.143-70.875c-17.042-29.696-25.161-64.658-25.161-102.839 0-59.026 19.749-106.203 57.125-144.018 37.376-37.742 85.358-57.125 144.018-57.125 31.817 0 59.758 5.339 84.553 16.018s49.81 29.477 77.751 57.125l-47.982 52.59c-20.699-20.846-39.863-35.547-57.125-43.447s-36.279-13.751-57.125-13.751c-24.43 0-46.299 7.022-66.267 18.286s-34.743 25.893-45.714 45.714c-10.971 19.822-18.286 43.008-18.286 68.608 0 36.645 14.19 68.681 38.839 93.696 24.722 25.015 55.369 36.571 91.429 36.571 42.715 0 80.091-18.139 114.322-54.857l50.322 47.982c-20.846 24.649-46.592 43.813-75.41 57.125s-58.002 20.553-89.161 20.553zM642.341 644.498c-36.279 0-71.387-7.168-102.839-25.161s-55.15-44.69-73.143-75.41c-17.993-30.72-27.429-63.927-27.429-100.571 0-54.711 18.578-99.621 57.125-139.41s87.991-61.733 146.286-61.733c55.662 0 104.96 20.699 144.018 59.465 39.058 38.693 57.125 83.529 57.125 139.41 0 56.466-19.895 104.741-59.465 144.018s-86.747 59.465-141.751 59.465zM642.267 573.696c35.621 0 64.293-13.605 89.161-38.839s38.839-54.93 38.839-91.429c0-36.645-14.19-68.681-38.839-93.696s-54.053-36.571-89.161-36.571c-31.013 0-58.295 10.459-82.286 29.696-30.866 24.649-45.714 55.881-45.714 98.304 0 38.034 9.801 69.047 34.304 93.696s57.783 38.839 93.696 38.839zM923.429 299.41c-30.062 0-53.979-8.558-73.143-27.429-19.163-18.944-30.501-44.763-32.037-77.751h57.125c0.585 15.945 5.413 27.282 13.751 36.571s19.529 13.751 32.037 13.751c12.361 0 21.87-3.657 29.696-11.41 7.826-7.68 11.41-15.653 11.41-27.429 0-11.337-3.877-24.795-11.41-38.839s-22.821-34.011-45.714-57.125l-93.696-96.037v-27.429h210.286v54.857h-107.447l34.304 34.304c27.429 28.526 46.811 54.491 57.125 75.41s13.751 41.253 13.751 59.465c0 15.214-2.926 28.672-11.41 43.447-8.558 14.775-20.041 26.478-34.304 34.304-14.19 7.899-31.744 11.41-50.322 11.41z" />
<glyph unicode="&#xe642;" glyph-name="cog" data-tags="cog" d="M480.037 864c-35.328 0-64-28.672-64-64v-91.429c-31.378-8.411-61.659-20.699-89.161-36.571l-64 64c-25.015 25.015-64.146 25.015-89.161 0l-45.714-45.714c-25.015-25.015-25.015-64.146 0-89.161l64-64c-15.872-27.502-28.16-57.783-36.571-89.161h-91.429c-35.328 0-64-28.672-64-64v-64c0-35.328 28.672-64 64-64h91.429c8.411-31.451 20.699-61.586 36.571-89.161l-64-64c-24.942-25.015-24.942-64.146 0-89.161l45.714-45.714c25.015-24.942 64.146-24.942 89.161 0l64 64c27.502-15.872 57.71-28.16 89.161-36.571v-91.429c0-35.328 28.672-64 64-64h64c35.328 0 64 28.672 64 64v91.429c31.378 8.411 61.659 20.699 89.161 36.571l64-64c24.942-24.942 64.146-24.942 89.161 0l45.714 45.714c24.942 25.015 24.942 64.146 0 89.161l-64 64c15.872 27.502 28.16 57.783 36.571 89.161h91.429c35.328 0 64 28.672 64 64v64c0 35.328-28.672 64-64 64h-91.429c-8.411 31.451-20.699 61.586-36.571 89.161l64 64c25.015 25.015 25.015 64.146 0 89.161l-45.714 45.714c-25.015 25.015-64.146 25.015-89.161 0l-64-64c-27.502 15.872-57.71 28.16-89.161 36.571v91.429c0 35.328-28.672 64-64 64h-64zM512.073 575.963c123.685 0 224.037-100.279 224.037-224.037 0-123.685-100.279-224.037-224.037-224.037-123.685 0-224.037 100.279-224.037 224.037 0 123.685 100.279 224.037 224.037 224.037zM512.073 447.963c-53.029 0-96.037-43.008-96.037-96.037s43.008-96.037 96.037-96.037c53.029 0 96.037 43.008 96.037 96.037s-43.008 96.037-96.037 96.037z" />
<glyph unicode="&#xe643;" glyph-name="cogs" data-tags="cogs" d="M317.733 864c-29.184 0-54.857-23.406-54.857-52.59v-36.571c-21.211-5.778-40.887-14.336-59.465-25.161l-29.696 32.037c-20.626 20.626-57.125 20.626-77.751 0l-18.286-20.553c-20.626-20.626-20.626-52.517 0-73.143l34.304-32.037c-10.094-17.92-19.675-36.791-25.161-57.125h-34.304c-29.184 0-52.59-25.673-52.59-54.857v-22.894c0-29.184 23.406-54.857 52.59-54.857h34.304c5.632-20.553 14.775-39.058 25.161-57.125l-34.304-29.696c-20.626-20.626-20.626-59.392 0-80.018l18.286-16.018c20.626-20.626 57.125-20.626 77.751 0l29.696 34.304c17.993-10.24 38.985-19.529 59.465-25.161v-34.304c0-29.184 25.673-52.59 54.857-52.59h22.894c29.184 0 54.857 23.406 54.857 52.59v34.304c20.407 5.559 39.131 14.921 57.125 25.161l32.037-34.304c20.626-20.626 57.125-20.626 77.751 0l16.018 16.018c20.626 20.626 20.626 59.392 0 80.018l-34.304 29.696c10.386 18.066 21.797 36.645 27.429 57.125h34.304c29.184 0 52.59 25.673 52.59 54.857v22.894c0 29.184-23.406 54.857-52.59 54.857h-34.304c-5.486 20.334-15.067 39.205-25.161 57.125l32.037 32.037c20.626 20.626 20.626 52.517 0 73.143l-16.018 20.553c-20.626 20.626-57.125 20.626-77.751 0l-29.696-32.037c-18.578 10.825-38.254 19.383-59.465 25.161v36.571c0 29.184-25.673 52.59-54.857 52.59h-22.894zM329.143 676.535c80.165 0 144.018-63.854 144.018-144.018 0-80.238-63.781-146.286-144.018-146.286-80.165 0-146.286 66.048-146.286 146.286 0 80.165 66.121 144.018 146.286 144.018zM329.143 601.125c-36.206 0-66.267-30.062-66.267-66.267s30.062-66.267 66.267-66.267c36.206 0 66.267 30.062 66.267 66.267 0 36.279-30.062 66.267-66.267 66.267zM687.982 345.125c-5.413 0-10.752 0-16.018-2.267l-18.286-9.143c-20.919-8.923-31.744-36.206-22.894-57.125l13.751-27.429c-12.581-10.021-24.357-21.138-34.304-34.304l-20.553 6.875c-21.065 8.485-48.64-1.755-57.125-22.894l-6.875-16.018c-8.485-21.138 4.096-48.64 25.161-57.125l20.553-9.143c-1.902-16.53-2.194-34.158 0-50.322l-29.696-11.41c-20.919-8.997-31.744-33.938-22.894-54.857l9.143-16.018c8.85-20.992 31.671-31.817 52.59-22.894l34.304 9.143c10.021-12.654 21.138-22.016 34.304-32.037l-9.143-25.161c-8.558-21.138 1.755-41.765 22.894-50.322l18.286-9.143c21.065-8.485 44.032-0.585 52.59 20.553l11.41 27.429c16.384-2.048 31.963-4.535 47.982-2.267l16.018-29.696c8.85-20.992 33.938-31.817 54.857-22.894l16.018 9.143c20.919 8.923 31.744 31.598 22.894 52.59l-13.751 29.696c12.8 10.021 24.137 23.333 34.304 36.571l22.894-9.143c21.138-8.485 46.373 4.023 54.857 25.161l6.875 16.018c8.558 21.138-1.755 48.64-22.894 57.125l-22.894 9.143c2.048 16.311 2.048 32.037 0 47.982l29.696 11.41c20.919 8.923 31.744 36.206 22.894 57.125l-6.875 16.018c-8.923 20.992-33.938 31.817-54.857 22.894l-32.037-16.018c-10.24 13.239-20.626 30.793-34.304 41.179l6.875 20.553c8.485 21.138 0.512 46.373-20.553 54.857l-18.286 9.143c-21.065 8.485-46.373-4.023-54.857-25.161l-9.143-22.894c-17.042 1.975-35.986-2.121-52.59-4.608l-11.41 34.304c-6.656 15.726-22.674 25.161-38.839 25.161zM765.806 207.762c14.629 0.439 28.965-3.291 43.447-9.143 58.002-23.406 85.138-88.137 61.733-146.286-23.406-58.075-88.283-89.673-146.286-66.267s-85.138 90.478-61.733 148.553c17.554 43.593 58.953 71.899 102.839 73.143zM765.806 146.030c-19.968-0.366-37.742-12.215-45.714-32.037-10.679-26.405 1.17-58.002 27.429-68.608s57.929 3.365 68.608 29.696c10.606 26.405-3.438 55.662-29.696 66.267-6.583 2.633-13.897 4.681-20.553 4.608z" />
<glyph unicode="&#xe644;" glyph-name="collapse-arrow-in" data-tags="collapse-arrow-in" d="M0 864v-1024h1024v1024h-1024zM73.143 790.857h877.714v-877.714h-877.714v877.714zM146.286 571.429v-438.857l219.429 219.429-219.429 219.429zM877.714 571.429l-219.429-219.429 219.429-219.429v438.857z" />
<glyph unicode="&#xe645;" glyph-name="collapse-arrow-out" data-tags="collapse-arrow-out" d="M292.571 864v-1024h438.857v1024h-438.857zM365.714 790.857h292.571v-877.714h-292.571v877.714zM0 571.429v-438.857l219.429 219.429-219.429 219.429zM1024 571.429l-219.429-219.429 219.429-219.429v438.857z" />
<glyph unicode="&#xe646;" glyph-name="cooling-tower" data-tags="cooling-tower" d="M658.286 864c-58.88 0-114.176-28.745-148.553-75.41-5.998 0.878-12.142 2.267-18.286 2.267-64.585 0-116.443-47.909-125.733-109.714h34.304c8.558 41.765 46.958 73.143 91.429 73.143 12.434 0 23.479-2.414 34.304-6.875 24.43 47.47 75.41 80.018 132.608 80.018s105.911-32.475 130.267-80.018c10.825 4.462 21.87 6.875 34.304 6.875 50.834 0 91.429-40.741 91.429-91.429s-40.594-91.429-91.429-91.429c-19.675 0-37.595 5.559-52.59 16.018-26.99-32.402-66.414-52.59-111.982-52.59v-38.839c44.325 0 85.577 16.75 118.857 45.714 14.555-5.559 29.989-6.875 45.714-6.875 71.022 0 128 57.198 128 128s-56.978 128-128 128c-6.144 0-12.288-1.902-18.286-2.267-34.377 46.665-87.406 75.41-146.286 75.41zM219.502 644.571c36.571-36.571 36.571-36.571 36.571-73.143 0-235.227-42.057-367.909-146.286-548.571l-36.571-73.143v-109.714h731.429v109.714l-36.571 73.143c-104.229 180.955-146.286 313.344-146.286 548.571 0 36.571 0 36.571 36.571 73.143h-438.857zM509.806 571.429h73.143c-36.718-256 75.191-475.429 148.553-658.286h-73.143c-73.143 182.857-185.271 402.286-148.553 658.286z" />
<glyph unicode="&#xe647;" glyph-name="cost" data-tags="cost" d="M512 864v-146.286h512v146.286h-512zM512 644.571v-109.714c52.078 25.088 120.905 36.571 182.857 36.571 85.87 0 165.23-27.209 230.839-73.143h98.304v146.286h-512zM0 498.286v-146.286h340.553c29.038 56.905 69.998 106.862 121.125 144.018-3.877 0.951-7.387 2.267-11.41 2.267h-450.267zM692.59 498.286c-182.272 0-326.875-150.455-326.875-333.751 0-183.223 144.603-329.143 326.875-329.143s331.41 145.92 331.41 329.143c0 183.223-149.138 333.751-331.41 333.751zM672.037 402.249h47.982v-52.59c35.986-1.243 59.392-11.41 77.751-20.553l-13.751-52.59c-13.824 6.875-41.253 20.553-80.018 20.553-40.082 0-54.857-19.31-54.857-38.839 0-23.552 21.723-42.789 70.875-61.733 63.854-24.137 91.429-51.2 91.429-102.839 0-48.786-31.451-90.185-93.696-100.571v-59.465h-47.982v54.857c-35.986 1.243-70.875 11.995-91.429 25.161l13.751 50.322c22.821-13.897 54.418-22.894 89.161-22.894 36.645 0 59.465 16.457 59.465 43.447 0 26.405-16.677 46.226-59.465 61.733-59.465 21.797-100.571 45.422-100.571 98.304 0 49.371 33.792 90.185 91.429 100.571v57.125zM0.073 278.784v-146.286h297.179c-0.951 11.337-2.267 22.674-2.267 34.304 0 39.278 5.705 76.069 16.018 111.982h-310.857zM0.146 59.355v-146.286h384c-34.011 41.911-58.368 92.453-73.143 146.286h-310.857z" />
<glyph unicode="&#xe648;" glyph-name="cut" data-tags="cut" d="M875.447 859.392c-54.418-6.949-109.641-46.519-144.018-105.179-73.143-117.687-36.571-175.982-109.714-219.429-3.145-1.243-28.233-16.311-36.571-20.553 37.23-21.577 63.781-58.88 70.875-102.839 1.243-7.534 2.267-14.921 2.267-22.894 0-73.874-54.711-133.998-125.733-144.018l491.447-404.553c-27.282 107.886-117.833 376.101-342.894 550.839 51.419 69.047 50.322 70.875 123.465 100.571 36.571 6.875 36.571 6.875 102.839 29.696 33.938 17.481 64.658 46.665 86.894 84.553 52.37 89.381 35.986 196.462-36.571 237.714-18.139 10.313-38.912 15.214-59.465 16.018-7.68 0-15.067 1.024-22.894 0zM125.659 857.051c-20.48 0-41.326-5.705-59.465-16.018-72.558-41.253-88.942-148.407-36.571-237.714 22.235-37.888 52.955-64.805 86.894-82.286 66.267-22.894 70.217-14.702 102.839-22.894 68.974-28.014 104.814-68.827 139.41-109.714-41.911-25.454-87.698-58.002-102.839-73.143-177.591-172.105-231.497-378.514-256-475.429l438.857 361.179 54.857 43.447c-69.851 8.777-124.709 65.755-128 137.143 0 2.267 0 4.535 0 6.875 0 1.536 0 3.072 0 4.608 1.682 53.175 31.598 99.255 75.41 123.465-12.727 3.877-38.839 18.286-38.839 18.286-73.070 72.338-73.143 109.714-109.714 219.429-36.571 73.143-89.6 95.89-144.018 102.839-7.753 1.024-15.141 0-22.894 0zM875.301 793.125c13.751 0 26.697-4.535 38.839-11.41 48.713-27.721 60.343-97.719 25.161-157.696s-104.448-87.113-153.161-59.465c-48.713 27.721-58.002 97.719-22.894 157.696 26.405 44.983 70.656 72.338 111.982 70.875zM148.334 790.857c41.326 1.536 85.65-23.625 111.982-68.608 35.109-59.977 25.819-130.048-22.894-157.696s-117.979-2.779-153.161 57.125c-35.109 59.977-23.552 130.048 25.161 157.696 12.142 6.949 25.088 10.679 38.839 11.41zM511.707 461.641c-40.375 0-73.143-32.768-73.143-73.143s32.768-73.143 73.143-73.143c40.375 0 73.143 32.768 73.143 73.143s-32.768 73.143-73.143 73.143z" />
<glyph unicode="&#xe649;" glyph-name="damper" data-tags="damper" d="M146.286 864v-1024h731.502v1024h-731.502zM219.429 790.857h585.143v-877.787h-585.143v877.787zM731.429 717.714l-438.857-219.429v-73.143l438.857 219.429v73.143zM731.429 498.286l-438.857-219.429v-73.143l438.857 219.429v73.143zM731.429 278.857l-438.857-219.429v-73.143l438.857 219.429v73.143z" />
<glyph unicode="&#xe64a;" glyph-name="dashboard" data-tags="dashboard" d="M0 864v-1024h1024v73.143h-950.857v950.857h-73.143zM1024 717.714l-219.429-146.286-219.429 73.143-219.429-219.429h-219.429v-329.143l219.429 219.429 146.286-73.143 219.429 219.429 292.571-146.286v402.286zM731.429 352l-219.429-219.429-146.286 73.143-219.429-219.429h877.714v219.429l-292.571 146.286z" />
<glyph unicode="&#xe64b;" glyph-name="data" data-tags="data" d="M0 790.857v-584.997h1024v585.143h-585.143zM585.143 644.571h292.571v-73.143h-292.571zM0 132.571v-219.429h146.286v-73.143h219.429v73.143h292.571v-73.143h219.429v73.143h146.286v219.429h-585.143z" />
<glyph unicode="&#xe64c;" glyph-name="database" data-tags="database" d="M146.286 864h-73.143v-219.429h877.714v219.429h-73.143zM73.143 571.429v-219.429h877.714v219.429zM73.143 278.857v-219.429h365.714v-73.143h-438.857v-73.143h438.857v-73.143h146.286v73.143h438.857v73.143h-438.857v73.143h365.714v219.429z" />
<glyph unicode="&#xe64d;" glyph-name="data-register" data-tags="data-register" d="M0 790.857v-584.997h512v219.429l438.857-219.429h73.143v585.143h-585.143zM585.143 644.571h292.571v-73.143h-292.571zM585.143 278.857v-438.857c147.017 73.143 294.034 146.213 441.051 219.429zM0 132.571v-219.502h146.286v-73.143h219.429v73.143h146.286v219.429h-73.143z" />
<glyph unicode="&#xe64e;" glyph-name="data-reload" data-tags="data-reload" d="M0 790.857v-584.997h290.304c36.206 171.813 189.952 301.714 372.59 301.714 104.741 0 198.729-43.301 267.41-111.982l93.696 52.59v342.894h-585.143zM585.143 644.571h292.571v-73.143h-292.571zM683.447 425.143c-56.174 4.169-114.249-8.777-166.839-38.839-140.215-80.311-187.758-259.803-107.447-400.018s259.803-187.758 400.018-107.447c35.986 20.626 63.561 48.713 86.894 80.018l-77.751 20.553c-13.897-14.263-27.502-26.112-45.714-36.571-105.179-60.197-239.177-25.161-299.447 80.018-60.197 105.179-25.161 239.177 80.018 299.447 98.962 56.686 223.451 27.209 288.037-64l4.608-6.875-114.322-64 292.571-164.571v329.143l-114.322-64c-51.054 81.554-136.265 130.487-226.304 137.143zM0 132.571v-219.502h146.286v-73.143h219.429v54.857c-50.761 64.512-82.286 144.677-82.286 233.179 0 1.536 0 3.072 0 4.608z" />
<glyph unicode="&#xe64f;" glyph-name="detach" data-tags="detach" d="M292.571 864c-36.571 0-62.976-26.405-73.143-36.571l-182.857-182.857c-10.167-10.167-36.571-36.571-36.571-73.143s26.405-62.976 36.571-73.143l256-256 73.143 73.143-219.429 219.429c-20.334 20.334-20.334 52.809 0 73.143l109.714 109.714c20.334 20.334 52.809 20.334 73.143 0l219.429-219.429 73.143 73.070-255.927 255.927c-10.167 10.167-36.571 36.571-73.143 36.571zM658.359 863.854v-365.714h365.714v73.143h-239.982l205.751 208.018-50.322 50.322-208.018-205.751v239.982zM731.502 461.568l-73.143-73.143 219.429-219.429c20.334-20.334 20.334-52.809 0-73.143l-109.714-109.714c-20.334-20.334-53.029-20.626-73.143 0l-219.429 219.429-70.875-70.875 34.304-34.304 219.429-224.037c10.167-10.167 36.571-36.571 73.143-36.571s62.976 26.405 73.143 36.571l182.857 182.857c10.167 10.167 36.571 36.571 36.571 73.143s-26.405 62.976-36.571 73.143l-256 256zM0.073 205.495v-73.143h239.982l-205.751-208.018 50.322-50.322 208.018 205.751v-239.982h73.143v365.714z" />
<glyph unicode="&#xe650;" glyph-name="details" data-tags="details" d="M27.429 864c-11.63-1.682-27.429-9.143-27.429-36.571v-219.429c0 0 0-36.571 36.571-36.571h219.429c9.655 0 36.571 0 36.571 36.571v219.429c0 36.571-36.571 36.571-36.571 36.571h-219.429c-2.414 0-5.266 0.073-9.143 0zM402.286 644.571c-20.261 0-36.571-16.311-36.571-36.571s16.311-36.571 36.571-36.571h219.429c20.261 0 36.571 16.311 36.571 36.571s-16.311 36.571-36.571 36.571h-219.429zM768 644.571c-20.261 0-36.571-16.311-36.571-36.571s16.311-36.571 36.571-36.571h219.429c20.261 0 36.571 16.311 36.571 36.571s-16.311 36.571-36.571 36.571h-219.429zM18.286 498.286c-10.094 0-18.286-8.192-18.286-18.286v-256c0-10.094 8.192-18.286 18.286-18.286h256c10.094 0 18.286 8.192 18.286 18.286v256c0 10.094-8.192 18.286-18.286 18.286h-256zM402.286 278.857c-20.261 0-36.571-16.311-36.571-36.571s16.311-36.571 36.571-36.571h219.429c20.261 0 36.571 16.311 36.571 36.571s-16.311 36.571-36.571 36.571h-219.429zM768 278.857c-20.261 0-36.571-16.311-36.571-36.571s16.311-36.571 36.571-36.571h219.429c20.261 0 36.571 16.311 36.571 36.571s-16.311 36.571-36.571 36.571h-219.429zM18.286 132.571c-10.094 0-18.286-8.192-18.286-18.286v-256c0-10.094 8.192-18.286 18.286-18.286h256c10.094 0 18.286 8.192 18.286 18.286v256c0 10.094-8.192 18.286-18.286 18.286h-256zM402.286-86.857c-20.261 0-36.571-16.311-36.571-36.571s16.311-36.571 36.571-36.571h219.429c20.261 0 36.571 16.311 36.571 36.571s-16.311 36.571-36.571 36.571h-219.429zM768-86.857c-20.261 0-36.571-16.311-36.571-36.571s16.311-36.571 36.571-36.571h219.429c20.261 0 36.571 16.311 36.571 36.571s-16.311 36.571-36.571 36.571h-219.429z" />
<glyph unicode="&#xe651;" glyph-name="door-closed" data-tags="door-closed" d="M146.286 864v-1024h731.429v1024h-731.429zM292.571 717.714h438.857v-146.286h-438.857v146.286zM658.286 425.143c40.375 0 73.143-32.768 73.143-73.143s-32.768-73.143-73.143-73.143c-40.375 0-73.143 32.768-73.143 73.143s32.768 73.143 73.143 73.143z" />
<glyph unicode="&#xe652;" glyph-name="door-opened" data-tags="door-opened" d="M146.286 864v-877.714h73.143l438.857-144.018v804.645l-438.857 144.018h585.143v-804.571h73.143v877.714zM219.429 644.571l365.714-118.857v-148.553l-365.714 121.125zM509.733 278.857c6.583 1.536 13.019 0.219 20.553-2.267 30.281-9.947 54.857-51.054 54.857-91.429s-24.576-64.805-54.857-54.857c-30.281 9.947-54.857 51.054-54.857 91.429 0 30.281 14.555 52.517 34.304 57.125z" />
<glyph unicode="&#xe653;" glyph-name="download" data-tags="download" d="M365.714 864v-365.714h-219.429l365.714-365.714 365.714 365.714h-219.429v365.714h-292.571zM0 205.714v-365.714h1024v365.714h-146.286v-219.429h-731.429v219.429h-146.286z" />
<glyph unicode="&#xe654;" glyph-name="drinking-water" data-tags="drinking-water" d="M619.857 864c-21.327 0-44.269-17.115-38.571-36.571v-36.571h-154c-21.327 0-38.429-16.311-38.429-36.571s17.102-36.571 38.429-36.571h154v-73.143h-69.286v-73.143h-146.286c-153.985 0-146.286-146.286-146.286-146.286v-146.286h146.286v73.143c0 73.143 0.008 73.143 77 73.143h69.286l73.143-73.143h73.143l73.143 73.143h146.286v146.286h-146.286v73.143h-73.143v73.143h154c21.327 0 38.571 16.311 38.571 36.571s-17.245 36.571-38.571 36.571h-154v36.571c0 20.261-17.102 36.571-38.429 36.571zM292.571 205.714c-24.638-144.969-115.275-148.162-115.429-244.857-0.462-48.347 38.436-120.857 115.429-120.857s120.594 72.51 120.286 120.857c0.693 96.695-43.293 99.815-120.286 244.857z" />
<glyph unicode="&#xe655;" glyph-name="drop" data-tags="drop" d="M621.714 352c5.778-94.866-109.714-182.857-109.714-256-1.975-54.345 25.381-104.302 73.143-109.714 73.143 0 146.286 73.143 146.286 182.857 0 36.718-24.722 116.224-109.714 182.857zM512 864c67.511-110.226 160.402-245.687 219.429-365.714 49.664-101.010 73.143-198.656 73.143-329.143 0-164.352-154.99-329.289-292.571-329.143-155.209-10.094-302.080 164.206-292.571 329.143 0 110.007 78.409 237.495 146.286 329.143 85.65 115.712 114.834 218.697 146.286 365.714z" />
<glyph unicode="&#xe656;" glyph-name="drop-o" data-tags="drop-o" d="M512.219 864.209c-31.451-147.017-60.635-250.002-146.286-365.714-67.877-91.648-146.286-219.136-146.286-329.143-9.509-164.937 137.362-339.237 292.571-329.143 137.582-0.146 292.571 164.791 292.571 329.143 0 130.487-23.479 228.133-73.143 329.143-59.026 120.027-151.918 255.488-219.429 365.714zM537.362 681.352c46.286-73.348 95.128-148.012 128-214.857 45.456-92.453 66.286-175.433 66.286-297.143 0-59.187-29.914-125.758-75.429-176-45.515-50.249-104.467-80.044-144-80h-4.571c-48.907-3.182-105.119 25.648-148.571 75.429-43.453 49.788-69.709 118.894-66.286 178.286v2.286c0 75.249 67.969 198.491 132.571 285.714 54.891 74.16 86.557 149.478 112 226.286z" />
<glyph unicode="&#xe657;" glyph-name="edit" data-tags="edit" d="M0 59.429l219.429-219.429h-219.429zM658.286 498.286c0 0-36.571 36.571-73.143 0l-292.571-292.571c-36.571-36.571 0-73.143 0-73.143s36.571-36.571 73.143 0l292.571 292.571c36.571 36.571 0 73.143 0 73.143zM621.714 681.143l219.429-219.429-548.571-548.571-219.429 219.429zM841.143 827.429l146.286-146.286c36.571-36.571 36.571-36.571 0-73.143l-73.143-73.143-219.429 219.429 73.143 73.143c36.571 36.571 36.571 36.571 73.143 0z" />
<glyph unicode="&#xe658;" glyph-name="elevator" data-tags="elevator" d="M0 864v-1024h585.143v1024h-585.143zM841.143 864l-182.857-219.429h146.286v-219.429h73.143v219.429h146.286l-182.857 219.429zM73.143 790.857h438.857v-877.714h-438.857v877.714zM292.571 717.714c-40.009 0-73.143-35.035-73.143-73.143s33.134-73.143 73.143-73.143c40.009 0 73.143 35.035 73.143 73.143s-33.134 73.143-73.143 73.143zM219.429 498.286c-36.206 0-73.143-36.352-73.143-68.608v-150.894h73.143v-292.571h146.286v292.571h73.143v150.894c0 32.183-36.937 68.608-73.143 68.608h-146.286zM804.571 278.857v-219.429h-146.286l182.857-219.429 182.857 219.429h-146.286v219.429h-73.143z" />
<glyph unicode="&#xe659;" glyph-name="emission" data-tags="emission" d="M907.41 864c-25.6 0-49.298-5.705-68.608-16.018s-33.28-26.185-41.179-43.447c-1.17 0-3.291 0-4.608 0-1.243 0-1.097 0-2.267 0-12.946 0-25.673-1.829-36.571-6.875s-21.723-11.557-29.696-20.553c-5.925 17.189-15.653 30.793-29.696 41.179-14.043 10.313-31.232 16.018-50.322 16.018-16.896 0-32.402-5.339-45.714-13.751-13.312-8.338-24.795-20.114-32.037-34.304-7.387 5.925-16.165 10.606-25.161 13.751-8.997 3.072-17.262 4.608-27.429 4.608-19.383 0-38.107-5.339-52.59-16.018s-26.331-25.819-32.037-43.447c-17.774-1.463-34.011-8.631-45.714-20.553-11.703-11.995-18.286-29.696-18.286-47.982 0-11.995 3.803-22.528 9.143-32.037h210.286c36.352 0 65.097-27.063 70.875-61.733 0.805 0.439 1.536 1.829 2.267 2.267 12.946 8.046 22.309 18.432 29.696 32.037 9.874-13.678 23.771-23.991 41.179-32.037 17.335-7.973 39.57-13.751 61.733-13.751 32.183 0 61.294 9.289 82.286 25.161s32.037 37.449 32.037 61.733c0 5.12-0.951 11.118-2.267 16.018s-2.487 9.143-4.608 13.751c1.536 0 2.999 0 4.608 0 1.536 0 2.999 0 4.608 0 32.183 0 61.294 9.289 82.286 25.161s34.304 39.79 34.304 64c0 24.21-13.312 45.861-34.304 61.733s-50.103 25.161-82.286 25.161zM255.927 571.502c-20.261 0-36.571-16.311-36.571-36.571s16.311-36.571 36.571-36.571h36.571v-201.143l-262.875-331.41c-16.969-19.31-27.209-33.792-29.696-54.857s5.851-44.325 18.286-54.857c24.942-20.992 54.857-18.286 54.857-18.286h660.626c2.999-0.293 7.461-0.293 13.751 0 9.362 0.439 21.285 2.414 36.571 13.751 15.287 11.264 23.698 39.79 18.286 59.465-5.413 19.602-17.627 33.28-36.571 54.857l-251.465 331.41v201.143h34.304c20.261 0 36.571 16.311 36.571 36.571s-16.311 36.571-36.571 36.571h-292.571zM365.714 498.432h73.143v-219.429l54.857-73.143h-54.857l-146.286-219.429h363.447l54.857-73.143h-626.322l281.161 365.714v219.429z" />
<glyph unicode="&#xe65a;" glyph-name="energy" data-tags="energy" d="M438.857 864h365.714l-292.571-438.857h292.571l-512-585.143 219.429 438.857h-292.571z" />
<glyph unicode="&#xe65b;" glyph-name="environment" data-tags="environment" d="M310.857-13.714h329.143c-3.657-74.606-80.969-146.286-164.571-146.286s-160.914 71.68-164.571 146.286zM310.857 132.571h329.143v-146.286h-329.143zM475.429 864c205.678 0 329.143-109.714 329.143-292.571 0-146.286-82.286-182.857-82.286-182.857-26.843-24.283-82.286-75.264-82.286-109.714v-36.571c0-34.45-43.959-36.571-82.286-36.571h-41.106c-45.861 207.726-164.571 182.857-51.712 402.432 0 0-71.753-146.286 10.533-256.146 0 0 123.392 36.571 82.286 219.429 0 0-41.106 109.714 41.179 182.857 0 0-224.329-1.755-288.037-182.857 0 0-34.962-116.37 123.392-219.429 0 0 41.179-73.143 41.179-146.286h-82.286c-41.106 0-82.286 2.121-82.286 36.571v36.571c0 34.45-55.515 85.431-82.286 109.714 0 0-82.286 36.571-82.286 182.857 0 182.857 164.571 292.571 329.143 292.571z" />
<glyph unicode="&#xe65c;" glyph-name="exit-fullscreen" data-tags="exit-fullscreen" d="M98.304 864l-98.304-98.304 219.429-219.429-121.125-121.125h340.553v340.553l-121.125-121.125-219.429 219.429zM925.769 864l-219.429-219.429-121.125 121.125v-340.553h340.553l-121.125 121.125 219.429 219.429-98.304 98.304zM98.304 278.857l121.125-121.125-219.429-219.429 98.304-98.304 219.429 219.429 121.125-121.125v340.553h-340.553zM585.143 278.857v-340.553l121.125 121.125 219.429-219.429 98.304 98.304-219.429 219.429 121.125 121.125h-340.553z" />
<glyph unicode="&#xe65d;" glyph-name="expand-arrow-in" data-tags="expand-arrow-in" d="M0 864v-1024h1024v1024h-950.857zM73.143 790.857h877.714v-877.714h-877.714zM365.714 571.429l-219.429-219.429 219.429-219.429v292.571zM658.286 571.429v-438.857l219.429 219.429z" />
<glyph unicode="&#xe65e;" glyph-name="expand-arrow-out" data-tags="expand-arrow-out" d="M292.571 864v-1024h438.857v1024h-438.857zM365.714 790.857h292.571v-877.714h-292.571v877.714zM219.429 571.429l-219.429-219.429 219.429-219.429v438.857zM804.571 571.429v-438.857l219.429 219.429-219.429 219.429z" />
<glyph unicode="&#xe65f;" glyph-name="eye" data-tags="eye" d="M512 644.571c-256 0-435.2-215.771-512-292.571 76.8-76.8 256-292.571 512-292.571s435.2 216.576 512 292.571c-76.8 75.995-256 292.571-512 292.571zM457.143 571.429c50.542 0 91.429-40.887 91.429-91.429s-40.887-91.429-91.429-91.429c-50.542 0-91.429 40.887-91.429 91.429s40.887 91.429 91.429 91.429zM322.267 527.982c-17.262-31.817-29.696-66.487-29.696-105.179 0-122.002 98.523-219.429 219.429-219.429s219.429 97.426 219.429 219.429c0 38.693-12.434 73.143-29.696 105.179 99.913-49.006 164.645-128.073 212.553-175.982-73.143-73.143-256-219.429-402.286-219.429s-329.143 146.286-402.286 219.429c47.909 47.909 112.64 126.976 212.553 175.982z" />
<glyph unicode="&#xe660;" glyph-name="fan" data-tags="fan" d="M512 864c-282.77 0-512-229.23-512-512s229.23-512 512-512c282.77 0 512 229.23 512 512s-229.23 512-512 512zM512 790.857c242.395 0 438.857-196.462 438.857-438.857s-196.462-438.857-438.857-438.857c-242.395 0-438.857 196.462-438.857 438.857s196.462 438.857 438.857 438.857zM441.143 732.286c-22.857-0.786-48-5.429-75.429-14.571 19.749-21.065 83.944-223.048 74.143-266.714 35.621 47.323 108.714 47.286 145.286 10.714 64 96 16 276.071-144 270.571zM512.714 432.429c-46.738 0-84.714-37.903-84.714-84.714 0-46.738 37.903-84.714 84.714-84.714 46.738 0 84.714 37.903 84.714 84.714 0 46.738-37.903 84.714-84.714 84.714zM633.714 364.714c23.186-54.491-13.329-117.758-63.286-131.143 58.441-118.199 285.056-164.597 331.429 62-28.16-6.583-235.229 38.789-268.143 69.143zM380.429 360c-131.584 8.485-285.056-164.546-112-318 8.411 27.648 151.285 184.186 194 197.571-58.807 7.168-95.385 70.472-82 120.429z" />
<glyph unicode="&#xe661;" glyph-name="fan-symbol" data-tags="fan-symbol" d="M512 864c-282.77 0-512-229.23-512-512s229.23-512 512-512c282.77 0 512 229.23 512 512s-229.23 512-512 512zM512 790.857c183.515 0 341.358-112.055 406.894-272.018l-656.018 194.267c70.875 49.079 156.453 77.751 249.125 77.751zM194.267 655.982l747.447-221.623c4.974-26.478 9.143-54.345 9.143-82.286s-4.169-55.808-9.143-82.286l-747.447-221.623c-75.41 78.848-121.125 186.295-121.125 303.982s45.714 225.207 121.125 303.982zM918.821 185.234c-65.536-159.963-223.305-272.018-406.894-272.018-93.184 0-178.103 30.501-249.125 80.018l656.018 192z" />
<glyph unicode="&#xe662;" glyph-name="file" data-tags="file" d="M950.857 864v-1024.073h-877.641v658.286h365.714v365.714zM365.714 864v-292.571h-292.571zM802.304 352h-580.535l-2.267-2.267v-68.608l2.267-2.267h580.535l2.267 2.267v68.608zM802.304 205.714h-580.535l-2.267-2.267v-68.608l2.267-2.267h580.535l2.267 2.267v68.608zM802.304 59.429h-580.535l-2.267-2.267v-68.608l2.267-2.267h580.535l2.267 2.267v68.608z" />
<glyph unicode="&#xe663;" glyph-name="file-o" data-tags="file-o" d="M365.714 864l-292.571-292.571v-731.429h877.714v1024h-585.143zM438.857 790.857h438.857v-877.714h-731.429v585.143h292.571v292.571zM365.714 761.161v-189.733h-187.465l187.465 189.733zM221.696 352l-2.267-2.267v-68.608l2.267-2.267h580.608l2.267 2.267v68.608l-2.267 2.267h-580.608zM221.696 205.714l-2.267-2.267v-68.608l2.267-2.267h580.608l2.267 2.267v68.608l-2.267 2.267h-580.608zM221.696 59.429l-2.267-2.267v-68.608l2.267-2.267h580.608l2.267 2.267v68.608l-2.267 2.267h-580.608z" />
<glyph unicode="&#xe664;" glyph-name="files" data-tags="files" d="M512 864v-73.143h365.714v-731.429h73.143v804.571h-438.857zM292.571 717.714l-219.429-219.429h219.429v219.429zM365.857 717.714v-292.571h-292.571v-585.143h731.286v877.714h-438.714zM219.429 352h438.857v-73.143h-438.857v73.143zM219.429 205.714h438.857v-73.143h-438.857v73.143zM219.429 59.429h438.857v-73.143h-438.857v73.143z" />
<glyph unicode="&#xe665;" glyph-name="files-o" data-tags="files-o" d="M512 864v-73.143h365.714v-731.429h73.143v804.571h-438.857zM268.286 717.714l-268.286-250.857v-627h804.571v877.714l-536.286 0.143zM292.571 644.571v-146.286h-146.286l146.286 146.286zM365.714 644.571h365.714v-731.429h-658.286v512h292.571v219.429zM146.286 352v-73.143h512v73.143h-512zM146.286 205.714v-73.143h512v73.143h-512zM146.286 59.429v-73.143h512v73.143h-512z" />
<glyph unicode="&#xe666;" glyph-name="filter" data-tags="filter" d="M0 864h1024l-365.714-438.857v-438.857l-292.571-146.286v585.143z" />
<glyph unicode="&#xe667;" glyph-name="filter-o" data-tags="filter-o" d="M0 864l365.714-438.857v-585.143l292.571 146.286v438.857l365.714 438.857h-1024zM157.696 790.857h708.608l-265.143-317.733-16.018-20.553v-420.571l-146.286-73.143v493.714l-16.018 20.553-265.143 317.733z" />
<glyph unicode="&#xe668;" glyph-name="fire" data-tags="fire" d="M582.857 864c-0.097-0.218-0.189-0.495-0.286-0.714 0.020 0.007 0.413 0.137 0.429 0.143l-0.143 0.571zM582.571 863.286c-4.573-1.673-137.594-52.090-177.571-114.714-40.155-62.903-74.434-163.153-16.286-336.429 21.138-81.481-18.785-147.558-40.143-175.571 5.193 19.31 11.811 51.976 10.714 89.571-1.682 55.003-50.67 191.419-134.857 240.571 0-5.705 34.743-225.347 0-277.571-34.67-52.151-97.45-174.816-72.143-268 21.211-77.897 90.505-121.008 200-160.286 28.087-8.631 55.018-15.225 84.714-20.857 1.829-0.366 3.701 0.743 4.286 2.571 0.585 2.048-0.245 4.195-2 5-56.32 24.576-114.367 75.635-71.286 179.571 41.033 89.527 9.122 156.178 0.857 176 21.211-12.069 87.961-63.927 77.429-118.857-0.219-1.609 0.394-3.338 1.857-4.143 1.39-1.17 3.112-1.024 4.429 0 1.243 1.097 118.135 139.701 60.571 268.286 28.379-16.53 113.325-107.685 69-240-14.848-56.832 25.461-97.816 27.143-99.571 1.39-0.805 3.248-1.024 4.857 0 1.463 0.951 2.23 2.959 1.571 4.714-1.317 3.584-31.456 84.947 33.714 129.857-3.511-20.846-9.047-72.481 14.286-100.714 20.846-25.454 41.217-66.904 35-107.571-4.389-28.526-21.035-52.774-50-71.571-1.755-1.17-2.306-3.171-1.429-5 0.805-2.048 2.813-2.143 4.714-2.143 71.534 23.845 165.186 71.17 206 161.429 30.208 66.487 24.92 151.935-11.286 237-36.133 85.065-117.611 168.622-48.857 318.857-0.951-21.723-176.336-6.352-134.571-198.571-128.065 123.027-135.182 365.13-80.714 488.143z" />
<glyph unicode="&#xe669;" glyph-name="flag" data-tags="flag" d="M1024 790.857c-73.143-36.571-256-109.714-292.571-219.429 36.571-36.571 292.571-36.571 292.571-292.571-438.857 219.429-585.143-146.286-804.571 0 0 150.309 0 361.765 0 512 182.857-36.571 331.995 61.294 512 73.143 76.873 5.851 230.034-51.346 292.571-73.143zM73.143 864c24.942 0 73.143 0 73.143-73.143v-877.714c0-24.942 0-73.143-73.143-73.143s-73.143 48.201-73.143 73.143v877.714c0 73.143 48.201 73.143 73.143 73.143z" />
<glyph unicode="&#xe66a;" glyph-name="flap" data-tags="flap" d="M146.286 864v-1024h731.502v1024h-731.502zM219.429 790.857h585.143v-877.787h-585.143v877.787zM717.751 717.714l-201.143-292.571c-1.536 0-2.999 0-4.608 0-40.375 0-73.143-32.768-73.143-73.143 0-10.825 2.633-20.48 6.875-29.696l-153.161-224.037v-111.982h13.751l201.143 292.571c1.536 0 2.999 0 4.608 0 40.375 0 73.143 32.768 73.143 73.143 0 10.825-2.633 20.48-6.875 29.696l153.161 224.037v111.982h-13.751z" />
<glyph unicode="&#xe66b;" glyph-name="flash" data-tags="flash" d="M438.857 864l-219.429-585.143h292.571l-219.429-438.857 512 585.143h-292.571l292.571 438.857h-365.714z" />
<glyph unicode="&#xe66c;" glyph-name="flask" data-tags="flask" d="M438.857 790.857v-365.714l-292.571-438.857c-8.777-15.945-1.17-35.035 17.042-42.715s40.082-1.024 48.859 14.921l153.6 247.223h365.714c0 0-147.017 206.409-146.286 219.429v365.714zM365.714 864h292.571c36.571 0 73.143 0 73.143-36.571s-36.571-36.571-73.143-36.571v-329.143l329.143-475.429c0 0 36.571-36.571 36.571-73.143s-36.571-73.143-73.143-73.143h-877.714c-36.571 0-73.143 36.571-73.143 73.143s36.571 73.143 36.571 73.143l329.143 475.429v329.143c-36.571 0-73.143 0-73.143 36.571s36.571 36.571 73.143 36.571z" />
<glyph unicode="&#xe66d;" glyph-name="floor-plan" data-tags="floor-plan" d="M0 864v-1024h804.571v365.714h219.429v658.286h-621.714c-4.608-98.67-84.261-178.103-182.857-182.857v182.857h-182.857zM73.143 790.857h109.714v-146.286h27.429c2.999 0 6.144-0.146 9.143 0 93.257 3.657 171.374 63.342 203.41 146.286h89.161v-365.714h73.143v365.714h365.714v-219.429h36.571v-146.286h-36.571v-146.286h-438.857v-73.143h219.429v-292.571h-219.429v-36.571h-146.286v36.571h-292.571v73.143h-36.571v146.286h36.571v73.143h292.571v73.143h-292.571v146.286h-36.571v146.286l36.571 2.267z" />
<glyph unicode="&#xe66e;" glyph-name="folder" data-tags="folder" d="M0 352h1024v-512h-1024v73.143zM0 790.857h512v-219.429h512v-146.286h-1024v292.571z" />
<glyph unicode="&#xe66f;" glyph-name="football-field" data-tags="football-field" d="M0 864v-73.143c3.438-107.081 0-268.946 0-402.286h370.322c16.238 63.122 73.874 109.714 141.751 109.714 68.169 0 125.513-46.592 141.751-109.714h370.322v475.429h-292.571v-219.429h-438.857v219.429zM363.447 864l2.267-146.286h292.571v146.286zM512 425.143c-40.375 0-73.143-32.768-73.143-73.143s32.768-73.143 73.143-73.143c40.375 0 73.143 32.768 73.143 73.143s-32.768 73.143-73.143 73.143zM1024 317.696v-2.267h-370.322c-16.238-63.122-73.874-109.714-141.751-109.714-68.169 0-125.513 46.592-141.751 109.714h-370.322c0-10.679 0-26.843 0-36.571v-438.857h292.571v219.429h438.857v-219.429h292.571v73.143l2.267 404.553zM365.714-13.714l-2.267-146.286h294.766v146.286z" />
<glyph unicode="&#xe670;" glyph-name="full-screen" data-tags="full-screen" d="M0 864v-362l129.286 129.286 232.714-232.714 103.429 103.429-232.714 232.714 129.286 129.286h-362zM662 864l129.286-129.286-232.714-232.714 103.429-103.429 232.714 232.714 129.286-129.286v362h-362zM362 305.429l-232.714-232.714-129.286 129.286v-362h362l-129.286 129.286 232.714 232.714-103.429 103.429zM662 305.429l-103.429-103.429 232.714-232.714-129.286-129.286h362v362l-129.286-129.286-232.714 232.714z" />
<glyph unicode="&#xe671;" glyph-name="garbage-container" data-tags="garbage-container" d="M292.571 864v-73.143h-146.286v-73.143h731.429v73.143h-146.286v73.143zM146.286 644.571v-73.143c0-40.521 0-146.286 72.411-147.017 0.073 0.073 0.073 0.073 0.073 0.073l41.179-292.571c99.109-2.487 178.322-83.456 178.322-182.857 0-40.887-13.824-79.287-36.571-109.714h329.143l73.143 585.143c73.143 0 73.143 105.765 73.143 146.286v73.143zM256 59.429c-60.562 0-109.714-49.152-109.714-109.714s49.152-109.714 109.714-109.714c60.562 0 109.714 49.152 109.714 109.714s-49.152 109.714-109.714 109.714z" />
<glyph unicode="&#xe672;" glyph-name="gas" data-tags="gas" d="M548.571 864c-37.23-19.822-109.714-36.571-146.286-146.286-36.571-146.286 56.323-212.415-27.571-350.143-8.997 94.208-45.571 167.286-155.286 203.857 5.413-58.149 73.143-146.286 36.571-219.429-65.097-112.64-36.571-256 109.714-292.571 38.693-9.362 97.646 2.926 109.714 0-47.323 19.675-146.286 69.859-109.714 139.857 34.523 71.534 43.52 89.201 36.571 105 23.186-25.161 40.375-30.283 36.571-70 53.76 50.761 103.717 131.371 73.143 210 112.274-67.072 40.375-107.088 73.143-210-2.999 40.667 73.143 70 109.714 70-2.926-16.677-56.174-82.472-36.571-105 14.848-64.731 0.731-94.874-73.143-139.857 167.57 2.853 292.571 109.714 219.429 256-73.143 256 7.168 377.71 0 402.286-73.143-36.571-146.286-73.158-146.286-203.571-127.634 141.458-109.714 314.895-109.714 349.857zM116.571 22.857c-22.162 0-43.429-18.505-43.429-36.571v-105.143c0-18.066 25.838-41.286 48-41.286h786.286c22.162 0 43.429 18.505 43.429 36.571v109.714c0 18.066-21.266 36.571-43.429 36.571l-790.857 0.143zM237.571-13.857c30.281 0 54.857-24.576 54.857-54.857s-24.576-54.857-54.857-54.857c-30.281 0-54.857 24.576-54.857 54.857s24.576 54.857 54.857 54.857zM420.429-13.857c30.281 0 54.857-24.576 54.857-54.857s-24.576-54.857-54.857-54.857c-30.281 0-54.857 24.576-54.857 54.857s24.576 54.857 54.857 54.857zM603.286-13.857c30.281 0 54.857-24.576 54.857-54.857s-24.576-54.857-54.857-54.857c-30.281 0-54.857 24.576-54.857 54.857s24.576 54.857 54.857 54.857zM786.143-13.857c30.281 0 54.857-24.576 54.857-54.857s-24.576-54.857-54.857-54.857c-30.281 0-54.857 24.576-54.857 54.857s24.576 54.857 54.857 54.857z" />
<glyph unicode="&#xe673;" glyph-name="gauge" data-tags="gauge" d="M512 717.714c-282.77 0-512-229.23-512-512 0-64.219 14.994-162.67 36.571-219.429h953.051c21.577 56.613 34.304 155.209 34.304 219.429 0 282.77-229.23 512-512 512zM511.927 644.571c256 0 438.857-182.857 438.857-438.857 0-35.84 0-109.714-36.571-146.286h-317.733c19.895 20.992 32.037 48.786 32.037 80.018 0 64.585-51.931 116.59-116.59 116.59-21.943 0-41.911-5.559-59.465-16.018l-130.267 121.125c24.722 11.703 43.447 34.816 43.447 64 0 40.375-32.768 73.143-73.143 73.143s-73.143-32.768-73.143-73.143c0-33.646 23.918-60.050 54.857-68.608l4.608-11.41 132.608-144.018c-10.459-17.554-16.018-39.79-16.018-61.733 0-31.159 12.142-59.026 32.037-80.018h-317.733c-36.571 36.571-36.571 110.299-36.571 146.286 0 252.050 186.807 438.857 438.857 438.857zM512 571.355c-40.375 0-73.143-32.768-73.143-73.143s32.768-73.143 73.143-73.143c40.375 0 73.143 32.768 73.143 73.143s-32.768 73.143-73.143 73.143zM731.429 498.213c-40.375 0-73.143-32.768-73.143-73.143s32.768-73.143 73.143-73.143c40.375 0 73.143 32.768 73.143 73.143s-32.768 73.143-73.143 73.143zM219.429 278.784c-40.375 0-73.143-32.768-73.143-73.143s32.768-73.143 73.143-73.143c40.375 0 73.143 32.768 73.143 73.143s-32.768 73.143-73.143 73.143zM804.571 278.784c-40.375 0-73.143-32.768-73.143-73.143s32.768-73.143 73.143-73.143c40.375 0 73.143 32.768 73.143 73.143s-32.768 73.143-73.143 73.143z" />
<glyph unicode="&#xe674;" glyph-name="gavel" data-tags="gavel" d="M389 864l-0.143-0.143c-12.946 0.219-25.913-4.554-35.714-14.429-15.726-15.726-29.021-29.199-19-48.143l-1.571-1.714h0.286c10.679-13.093-0.573-21.928-12.714-34.143l-23-23c-7.607-7.68-17.983-10.815-27.857-9.571h-2c-3.584 2.121 3.019-6.742-0.857-5.571l-1.571 0.857-1.714 1.286h-0.429l-1-1c-15.799 3.145-32.712-1.569-45-13.857l-68-68.143c-12.288-12.361-16.929-29.414-13.857-45.286l-1-1h0.429l1.286-1.857 0.429-1.571c1.102-3.652-6.151 1.608-5.286-0.714l0.286-1.714c1.317-9.874-1.822-20.393-9.429-28l-23-23.143c-12.142-11.995-20.907-23.393-34-12.714h-0.429l-1.571-1.714h-0.143c-18.944 10.021-32.274-3.201-48-19-15.726-15.726-18.592-39.627-8.571-58.571 52.37-56.174 116.761-122.672 175.714-176.286h0.143c18.944-10.094 42.703-7.227 58.429 8.571 15.726 15.726 29.021 29.199 19 48.143l1.571 1.571h-0.286c-10.679 13.093 0.573 22.071 12.714 34.286l23.143 23c7.607 7.68 17.983 10.815 27.857 9.571h1.857c3.584-2.121 7.409-3.687 11.286-4.857l1.571-0.857 1.857-1.286 10.857 10.143 0.857 1c9.874-1.902 9.781 9.618 19.143 13.714l2.143 1 11.429-11.286-5.286-5.286c-14.409-14.482-14.409-37.946 0-52.429l10.429-10.571c14.482-14.482 37.877-14.482 52.286 0l5.286 5.286 384.857-407c-14.409-14.482-14.409-37.946 0-52.429l10.429-10.571c14.482-14.482 37.877-14.482 52.286 0l22-22c16.75-16.823 43.822-16.823 60.571 0l33.429 33.571c16.75 16.823 16.75 44.034 0 60.857l-21.857 22c14.409 14.482 14.409 37.946 0 52.429l-10.429 10.571c-14.482 14.482-37.877 14.482-52.286 0l-405.857 386 5.286 5.286c14.409 14.482 14.409 37.946 0 52.429l-10.429 10.571c-14.482 14.482-37.877 14.482-52.286 0l-5.286-5.286-12.571 12.571 1.143 3.429c2.341 7.826 13.25 5.599 11.714 13.571l0.857 1 10.286 10.857-1.429 1.857-0.429 1.571c-1.17 3.877-2.879 7.702-5 11.286h-0.143l-0.286 1.714c-1.317 9.874 1.822 20.25 9.429 27.857l23 23.143c12.142 11.995 20.907 23.536 34 12.857h0.429l1.571 1.571h0.143c18.944-10.021 32.274 3.344 48 19.143 15.726 15.726 18.449 39.627 8.429 58.571l-175.714 176.143c-7.095 3.73-14.961 5.857-22.714 5.857zM109.714 59.429c-24.283 0-36.571-14.409-36.571-36.571s12.288-36.571 36.571-36.571h-73.143c0 0-36.571 0-36.571-36.571v-73.143c0-36.571 36.571-36.571 36.571-36.571h512c36.571 0 36.571 36.571 36.571 36.571v73.143c0 36.571-36.571 36.571-36.571 36.571h-73.143c24.283 0 36.571 14.409 36.571 36.571s-12.288 36.571-36.571 36.571h-365.714z" />
<glyph unicode="&#xe675;" glyph-name="graduation" data-tags="graduation" d="M512 864l-512-219.429v-73.143l512-217.161 438.857 185.198v-4.608c0 0 0-292.571 0-438.857-36.571-36.571-36.571-219.429-36.571-219.429 36.571-36.571 73.143-36.571 109.714 0 0 0 0 182.857-36.571 219.429 0 158.501 0 459.703 0 459.703l36.571 15.726v73.143zM512 717.714c80.823 0 146.286-32.768 146.286-73.143s-65.463-73.143-146.286-73.143c-80.823 0-146.286 32.768-146.286 73.143s65.463 73.143 146.286 73.143zM146.286 425.143v-219.429c0-109.714 146.286-219.429 365.714-219.429s365.714 109.714 365.714 219.429c0 89.088 0 143.141 0 219.429l-365.714-155.429z" />
<glyph unicode="&#xe676;" glyph-name="graph" data-tags="graph" d="M1024 498.286v-292.571l-109.714 109.714-219.429-219.429-219.429 219.429-329.143-329.143v146.286l329.143 329.143 219.429-219.429 146.286 146.286-109.714 109.714zM0 864h73.143v-950.857h950.857v-73.143h-1023.634v64z" />
<glyph unicode="&#xe677;" glyph-name="hand" data-tags="hand" d="M438.857 864l0.143-0.143c-36.571 0-66.706-17.92-73.143-73.143l3.714-359.143c0-88.21-3.546-141.665-10.714-159-1.024 0.731-2.321 1.687-3.857 2.857l-153 70.286c-14.117 11.849-31.997 18.286-50.429 18.286-23.186 0-45.006-10.157-60-27.857-13.531-16.018-20.041-36.294-18.286-57.286 1.682-20.919 11.48-39.897 27.571-53.429l230.429-142.286c71.022-60.27 71-60.286 107.571-96.857 2.414-46.080-0.366-100.133 0-146.286h365.714v146.286c33.573 90.331 109.714 182.857 109.714 292.571 0 73.143 36.571 182.857-36.571 219.429-36.571 0-73.143 0-73.143-73.143v73.143c0 36.571 0 73.143-73.143 73.143s-73.143-73.143-73.143-109.714v36.571c0 36.571 0 109.714-73.143 109.714s-74.898-86.967-73.143-109.714v292.571c0 36.571-36.571 73.143-73.143 73.143z" />
<glyph unicode="&#xe678;" glyph-name="handcuffs" data-tags="handcuffs" d="M515.657-10.789c0 0-1.463 0-2.121 0l-46.153-27.867h-0.512c-11.264 7.314-26.112 8.046-38.4 0-17.042-10.313-22.455-32.402-12.142-49.371s32.475-22.382 49.518-12.069c12.215 7.387 18.505 20.919 17.189 34.231l46.153 27.941c2.706 1.682 3.584 5.193 1.975 7.899l-9.655 15.872c-0.146 0-0.293 0-0.512 0s-0.366 0-0.585 0c-1.243 1.17-2.999 1.609-4.681 1.463zM44.69 175.872l64.219-46.299c-9.216-49.957 28.672-145.335 101.522-141.239 13.019 0 25.454 2.341 36.937 6.51h0.146l36.498-59.392h-0.951c-22.162-10.021-46.738-15.506-72.631-15.506-117.979-6.802-196.023 114.469-176.786 214.309zM132.315 380.818c-2.194 0-4.535 0-5.851-2.56l-29.623-44.983h-0.585c-13.312 1.755-27.063-4.023-34.889-15.872-10.898-16.603-6.29-38.912 10.386-49.737 16.603-10.898 38.985-6.363 49.883 10.313 7.826 11.922 7.68 26.843 0 38.254h-0.293l29.623 44.983c0.439 0 0 1.39 0.878 2.121 0.293 1.682-0.146 3.438-1.243 4.681-0.146 0-0.366 0-0.585 0l-15.653 10.24c-0.658 0-1.39 0-2.121 0.805zM713.289 391.79c-2.267 0-4.608 0-6.875 0-34.523-1.097-69.266-10.825-100.937-29.989-98.231-59.392-129.536-186.953-69.925-284.891s187.465-129.17 285.696-69.778c98.231 59.392 129.536 186.953 69.925 284.891-7.314 12.069-15.726 23.113-24.942 33.061-39.936 43.227-95.89 66.706-152.942 66.779zM713.289 494.336c85.285 0 168.887-35.109 228.571-99.767 13.751-14.921 26.258-31.378 37.23-49.445 89.015-146.286 42.203-336.896-104.521-425.691-87.113-52.736-189.952-57.637-277.723-22.382l-4.901 2.048-131.657-54.272c-20.114-12.215-49.152-1.317-64.731 24.357l-108.251 177.957c-15.579 25.6-11.922 56.247 8.265 68.462l107.666 90.112v0.951c7.095 96.695 59.392 188.562 148.846 242.688 50.469 30.501 106.13 45.056 161.134 44.983zM351.305 863.707c59.831 0 120.613-15.579 174.373-50.834 17.627-11.557 33.719-24.576 48.201-38.839 3.218-3.145 6.29-6.29 9.289-9.582 45.349-48.786 72.923-110.080 80.53-174.080l0.585-6.071h-2.779c-30.427-5.193-60.562-13.824-89.746-26.405l-8.704-3.95v3.438c-0.878 53.248-22.235 105.399-61.586 144.091-9.655 9.509-20.48 18.286-32.256 25.966-96.037 62.83-224.914 36.133-287.963-59.538-63.049-95.744-36.279-224.329 59.758-287.159 35.986-23.552 76.654-34.523 116.663-34.011h5.339l-4.023-10.021c-13.678-35.84-22.089-73.143-24.869-111.762v-1.317l-115.931-96.987h-1.17c-4.974 1.755-9.874 4.169-14.555 7.241l-174.519 114.176c-25.161 16.457-35.035 45.714-22.089 65.317l59.099 129.243-1.902 4.974c-32.256 88.722-23.625 190.976 32.329 275.895 58.88 89.454 156.233 138.533 256 139.849z" />
<glyph unicode="&#xe679;" glyph-name="hand-o" data-tags="hand-o" d="M411.286 863.714l0.857-1c-1.39 0-2.896 0.007-4.286 0-31.451-1.024-60.642-13.904-82-36.286-21.138-22.089-32.233-50.865-31.429-81l3.429-314.286c0-20.992-0.206-38.514-0.571-53.143l-33.143 25.286c-21.065 16.969-47.502 26.286-74.857 26.286-34.743 0-67.475-14.825-89.857-40.571-41.911-48.201-35.661-120.402 13.857-161.143l160.286-131.714c32.256-53.321 66.842-87.739 91.857-108l0.571-84.857 0.429-64.429h427v64.143l1.143 104 96.857 297.286 0.429 1.714 2.571 9.429c7.168 26.99 12.774 48.224 13.286 69.143 1.317 49.81-28.226 75.461-46 86.286-13.093 7.899-26.999 15.462-42.286 20.143-4.901 38.034-33.703 76.715-104.286 88.857-10.606 1.829-20.003 2.714-29 2.714-8.558 0-16.818-0.746-24.571-2.429-16.238 24.357-45.485 43.429-91.857 43.429-5.266 0-10.793-0.070-16.571-0.143-8.338-0.731-16.327-1.75-23.714-3.286-0.293 61.074-0.564 118.336-0.571 131.429v2c-2.267 61.806-53.937 110.143-117.571 110.143zM410.571 799.286c27.282 0 49.976-20.944 51-47.714 0 0 1.143-297.35 1.143-300.714 0-14.775 8.697-22.286 18.571-22.286 13.605 0 29.714 14.238 29.714 43.714l-2.143 48.714c-2.341 27.282 20.913 35.875 49 38.143 3.803 0.073 7.559 0 11.143 0 22.674 0 39.454-6.734 41.429-30.286l2.714-55.143c3.584-15.653 9.504-20.429 15.429-20.429 9.509 0 18.857 12.429 18.857 12.429l4.571 24.714c3.803 20.773 15.582 27.857 33.429 27.857 5.266 0 11.138-0.617 17.429-1.714 27.721-4.754 54.329-16.655 49.429-43.571l-3.429-19.143c0 0-19.409-54.571-5-54.571 1.902 0 4.496 1.022 7.714 3.143l13.857 15.143c6.437 9.947 14.087 13.857 22.571 13.857 11.264 0 24.11-6.735 37.714-15 23.772-14.555 15.117-40.609 1-93.857l-99.286-304.429-1.286-113.571h-294.857v117.429c0 0-56.768 30.106-106.286 117l-169.286 139c-21.504 17.701-24.139 49.011-6 69.857 10.094 11.557 24.375 17.571 38.857 17.571 11.63 0 23.275-3.815 32.857-11.714l96.857-73.857c7.314-5.559 13.591-8.571 18.857-8.571 20.626 0 26.714 45.797 26.714 161.143l-3.429 315.143c-1.097 27.355 20.913 50.262 49 51.286h1.857l-0.714 0.429z" />
<glyph unicode="&#xe67a;" glyph-name="hard-disk" data-tags="hard-disk" d="M73.143 864c-35.328 0-73.143-37.815-73.143-73.143v-877.714c0-35.328 37.815-73.143 73.143-73.143h877.714c35.328 0 73.143 37.815 73.143 73.143v877.714c0 35.328-37.815 73.143-73.143 73.143zM532.553 790.857c181.467-11.191 319.781-168.302 308.59-349.696-10.752-173.861-162.304-307.639-334.043-308.663 43.52 73.874 49.81 146.286 47.47 187.173 63.122 16.238 103.717 73.874 103.717 141.97 0 80.823-65.463 146.286-146.286 146.286s-146.286-65.463-146.286-146.286c0-29.038 7.607-53.541 22.309-76.142 0 0-22.309-7.095-54.638-20.407-45.202-18.651-63.122-29.403-112.274-51.127l-3.438 3.73c0 0-38.327 108.325-34.889 164.571 11.191 181.394 168.302 319.781 349.696 308.59zM454.729 319.963c7.461-0.366 14.336-2.487 20.553-4.608 33.28-66.487-91.648-254.976-166.839-365.714-33.28-33.28-132.389-66.487-198.875 0s-33.28 165.595 0 198.875c0 0 233.765 176.933 345.161 171.447zM221.55 132.498c-40.375 0-73.143-32.768-73.143-73.143s32.768-73.143 73.143-73.143c40.375 0 73.143 32.768 73.143 73.143s-32.768 73.143-73.143 73.143z" />
<glyph unicode="&#xe67b;" glyph-name="heat" data-tags="heat" d="M73.143 717.714c-40.521 0-73.143-32.622-73.143-73.143v-658.286c0-40.521 32.622-73.143 73.143-73.143s73.143 32.622 73.143 73.143h73.143c0-40.521 32.622-73.143 73.143-73.143s73.143 32.622 73.143 73.143h73.143c0-40.521 32.622-73.143 73.143-73.143s73.143 32.622 73.143 73.143h73.143c0-40.521 32.622-73.143 73.143-73.143s73.143 32.622 73.143 73.143v585.143h84.553c12.8-21.358 35.035-36.571 61.733-36.571 40.375 0 73.143 32.768 73.143 73.143s-32.768 73.143-73.143 73.143c-26.697 0-48.933-15.214-61.733-36.571h-84.553c0 40.521-32.622 73.143-73.143 73.143s-73.143-32.622-73.143-73.143h-73.143c0 40.521-32.622 73.143-73.143 73.143s-73.143-32.622-73.143-73.143h-73.143c0 40.521-32.622 73.143-73.143 73.143s-73.143-32.622-73.143-73.143h-73.143c0 40.521-32.622 73.143-73.143 73.143zM146.286 571.429h73.143v-512h-73.143v512zM365.714 571.429h73.143v-512h-73.143v512zM585.143 571.429h73.143v-512h-73.143v512z" />
<glyph unicode="&#xe67c;" glyph-name="home" data-tags="home" d="M512 864l-512-512h146.286v-512h219.429v292.571h292.571v-292.571h219.429v512h146.286l-146.286 146.286v365.714h-146.286v-219.429z" />
<glyph unicode="&#xe67d;" glyph-name="home-o" data-tags="home-o" d="M512 864l-512-512h146.286v-512h292.571v292.571h146.286v-292.571h292.571v512h146.286l-146.286 146.286v365.714h-219.429v-146.286zM731.429 790.857h73.143v-329.143l36.571-36.571h-36.571v-512h-146.286v292.571h-292.571v-292.571h-146.286v512h-36.571l329.143 329.143 219.429-219.429z" />
<glyph unicode="&#xe67e;" glyph-name="image" data-tags="image" d="M694.857 425.143l182.857-292.571h-146.286l-146.286 219.429zM365.714 534.857l219.429-402.286h-438.857zM731.429 717.714c34.597 0 73.143-38.546 73.143-73.143s-38.546-73.143-73.143-73.143c-34.597 0-73.143 38.546-73.143 73.143s38.546 73.143 73.143 73.143zM73.143 790.857v-731.429h877.714v731.429zM73.143 864h877.714c35.328 0 73.143-37.815 73.143-73.143v-877.714c0-35.328-37.815-73.143-73.143-73.143h-877.714c-35.328 0-73.143 37.815-73.143 73.143v877.714c0 35.328 37.815 73.143 73.143 73.143z" />
<glyph unicode="&#xe67f;" glyph-name="info" data-tags="info" d="M455.826 498.286h129.317v-365.714h73.143v-73.143h-292.571v73.143h73.143v292.571h-73.143v73.143h90.112zM512.439 678.144c46.373 0 74.752-31.159 75.776-71.899 0-39.717-29.403-71.899-77.678-71.899-45.495 0-74.825 32.183-74.825 71.899 0 40.741 30.354 71.899 76.727 71.899zM512 780.398c-236.837 0-428.617-191.854-428.617-428.617 0-236.69 191.781-428.471 428.617-428.471 236.617 0 428.471 191.854 428.471 428.471 0 236.763-191.854 428.617-428.471 428.617zM512 863.854c282.697 0 511.927-229.157 511.927-512 0-282.77-229.23-511.927-511.927-511.927-282.843 0-512 229.157-512 511.927 0 282.917 229.23 512 512 512z" />
<glyph unicode="&#xe680;" glyph-name="key" data-tags="key" d="M365.714 864c-182.857 0-365.714-182.857-365.714-365.714 0-146.286 73.143-219.429 219.429-219.429 51.712 0 158.208 37.815 219.429 73.143l475.429-475.429c36.571-36.571 36.571-36.571 73.143 0s36.571 36.571 0 73.143l-73.143 73.143 109.714 109.714-146.286 146.286-109.714-109.714-256 256c35.401 61.221 73.143 167.717 73.143 219.429 0 146.286-73.143 219.429-219.429 219.429zM365.714 790.857c121.198 0 146.286-109.714 109.714-182.857-73.143-109.714-109.714-146.286-219.429-219.429-73.143-36.571-182.857-11.483-182.857 109.714 0 146.286 146.286 292.571 292.571 292.571z" />
<glyph unicode="&#xe681;" glyph-name="label" data-tags="label" d="M694.857 864c-36.571 0-54.857-18.286-73.143-36.571l-585.143-585.143c-7.387-7.387-37.449-56.32-36.571-68.608v-333.678h333.678c12.288-0.878 61.147 29.184 68.608 36.571l585.143 585.143c18.286 18.286 36.571 36.571 36.571 73.143s-18.286 54.857-36.571 73.143l-219.429 219.429c-18.286 18.286-36.571 36.571-73.143 36.571zM694.857 644.571c60.562 0 109.714-49.152 109.714-109.714s-49.152-109.714-109.714-109.714c-60.562 0-109.714 49.152-109.714 109.714s49.152 109.714 109.714 109.714z" />
<glyph unicode="&#xe682;" glyph-name="light-bulb" data-tags="light-bulb" d="M475.429 864c-164.571 0-329.143-109.714-329.143-292.571 0-73.143 36.571-146.286 73.143-182.857s73.143-73.143 91.429-146.286c18.286-36.571 41.179-36.571 82.286-36.571h164.571c38.327 0 64 0 82.286 36.571 18.286 73.143 54.857 109.714 91.429 146.286s73.143 109.714 73.143 182.857c0 182.857-123.465 292.571-329.143 292.571zM329.143 132.571v-146.286c3.657-74.606 62.683-146.286 146.286-146.286s142.629 71.68 146.286 146.286v146.286h-292.571z" />
<glyph unicode="&#xe683;" glyph-name="light-bulb-eco" data-tags="light-bulb-eco" d="M512 863.571l-0.143-0.286c-219.429 0-329.143-146.286-329.143-292.571s91.505-212.381 109.571-369.857l3.714-35.857c5.851-23.918 18.143-36.143 36.429-36.143h365.714c18.286 0 30.434 12.152 36.286 36.143l3.714 35.857c4.389 146.725 103 223.857 103 370.143s-109.714 292.571-329.143 292.571zM512 790.429c146.286 0.219 256-109.571 256-219.286 0-73.143-109.714-219.429-109.714-365.714l-69.857-2.714-3.286 149h-146.286l3.286-149-76.429 2.714c0 146.286-109.714 256-109.714 365.714s109.714 219.286 256 219.286zM365.714 59.429c-36.571 0-36.571-73.143 0-73.143l73.143-146.286h146.286l73.143 146.286c36.571 0 36.571 73.143 0 73.143h-292.571z" />
</font>
</defs>
</svg>
